<?xml version="1.0" encoding="utf-8"?>
<!-- Generator: Adobe Illustrator 16.0.0, SVG Export Plug-In . SVG Version: 6.00 Build 0)  -->
<!DOCTYPE svg PUBLIC "-//W3C//DTD SVG 1.1//EN" "http://www.w3.org/Graphics/SVG/1.1/DTD/svg11.dtd">
<svg version="1.1" id="Calque_1" xmlns="http://www.w3.org/2000/svg" xmlns:xlink="http://www.w3.org/1999/xlink" x="0px" y="0px"
	 width="960px" height="560px" viewBox="0 0 960 560" enable-background="new 0 0 960 560" xml:space="preserve">
<g>
	<path fill="#FFFFFF" d="M481.105,375.151c-52.81,0-95.774-42.964-95.774-95.773s42.964-95.773,95.774-95.773
		c52.81,0,95.773,42.964,95.773,95.773S533.915,375.151,481.105,375.151z"/>
	<path fill="#009ADC" d="M481.105,189.604c49.501,0,89.773,40.272,89.773,89.773s-40.272,89.773-89.773,89.773
		c-49.501,0-89.774-40.272-89.774-89.773S431.604,189.604,481.105,189.604 M481.105,177.604
		c-56.209,0-101.774,45.574-101.774,101.773c0,56.219,45.564,101.773,101.774,101.773c56.209,0,101.773-45.555,101.773-101.773
		C582.879,223.179,537.314,177.604,481.105,177.604L481.105,177.604z"/>
</g>
<g>
	<path fill="#009ADC" d="M523.014,317.779c-0.809-0.222-1.605-0.428-2.402-0.682c-3.271-1.094-5.814-3.101-7.656-6.044
		c-0.312-0.494-1.068-0.964-1.627-0.971c-11.141-0.065-22.275-0.081-33.417-0.04c-0.454,0.006-1.08,0.395-1.293,0.779
		c-2.401,4.211-6.141,6.397-10.821,6.562c-6.231,0.214-11.955-3.914-13.058-10.698c-1.134-7.079,3.708-13.164,10.18-14.332
		c5.511-0.986,10.903,1.225,13.617,6.365c0.526,1.003,1.168,1.331,2.286,1.315c10.722-0.082,21.429-0.106,32.126-0.091
		c1.02,0,1.553-0.362,2.006-1.208c4.006-7.162,14.316-9.096,20.582-3.774c1.316,1.109,2.287,2.622,3.453,3.938
		c0.279,0.312,0.725,0.807,1.004,0.741c2.764-0.576,5.592-1.027,8.246-1.957c3.258-1.136,5.238-3.585,5.848-7.089
		c0.518-2.952-0.518-5.36-2.688-7.228c-4.393-3.782-9.582-6.265-14.795-8.65c-5.969-2.737-11.676-5.903-16.807-10.007
		c-4.357-3.47-8.594-7.071-13.074-10.361c-3.971-2.91-8.041-5.788-12.82-7.252c-5.467-1.678-11.075-3.06-16.807-2.417
		c-7.54,0.855-14.908,2.624-20.449,8.469c-4.688,4.967-8.634,10.427-9.949,17.269c-0.592,2.976-0.764,6.2-0.329,9.184
		c0.83,5.642,2.221,11.208,3.388,16.799c1.037,4.959-1.143,9.719-5.254,10.878c-3.726,1.045-7.295,0.708-10.436-1.989
		c-2.778-2.376-5.681-4.63-8.602-6.842c-0.592-0.451-1.463-0.575-2.235-0.748c-0.511-0.115-1.053-0.065-1.579,0.017
		c-3.469,0.478-6.266-0.658-8.717-3.173c-1.891-1.941-4.045-3.628-6.166-5.329c-0.904-0.757-0.963-1.415-0.263-2.286
		c0.608-0.773,1.184-1.578,1.914-2.564c-2.935-2.73-5.846-5.454-8.773-8.175c0-0.181,0-0.379,0-0.576
		c0.971-1.068,1.95-2.154,2.993-3.322c3.093,2.73,6.127,5.395,9.252,8.141c0.485-0.764,0.88-1.397,1.322-2.104
		c-2.959-2.714-5.854-5.377-8.708-8.009c1.209-1.208,2.279-2.277,3.422-3.404c2.468,2.08,4.982,4.186,7.49,6.315
		c1.941,1.644,1.974,1.694,3.619-0.207c0.689-0.798,1.15-1.011,2.071-0.204c2.328,2.022,4.793,3.88,7.188,5.854
		c2.499,2.047,4.062,4.433,3.248,7.935c-0.32,1.364-0.74,2.952,0.83,4.186c2.038,1.628,3.897,3.511,5.904,5.204
		c0.501,0.429,1.257,0.552,1.989,0.864c0.074-0.485,0.147-0.624,0.115-0.755c-1.086-4.885-2.229-9.754-3.257-14.654
		c-1.249-5.952-1.027-11.823,0.962-17.629c2.063-6.011,5-11.463,9.366-16.125c2.5-2.656,5.625-4.325,8.601-6.282
		c5.921-3.898,12.499-5.617,19.391-6.159c3.831-0.297,7.728,0.048,11.578,0.222c4.949,0.238,9.703,1.454,14.365,3.083
		c8.51,2.977,16.238,7.467,23.92,12.088c11.059,6.66,22.068,13.402,31.656,22.185c1.646,1.512,3.504,2.91,4.729,4.728
		c2.574,3.732,3.988,7.854,3.832,12.572c-0.172,5.197-2.361,9.152-6.191,12.309c-5.264,4.35-11.529,6.143-18.223,6.703
		c-0.953,0.082-1.553,0.41-1.988,1.298c-1.234,2.566-3.191,4.489-5.74,5.707c-1.488,0.691-3.074,1.103-4.631,1.638
		C525.496,317.779,524.27,317.779,523.014,317.779z"/>
</g>
</svg>
