<?xml version="1.0" encoding="utf-8"?>
<!-- Generator: Adobe Illustrator 16.0.0, SVG Export Plug-In . SVG Version: 6.00 Build 0)  -->
<!DOCTYPE svg PUBLIC "-//W3C//DTD SVG 1.1//EN" "http://www.w3.org/Graphics/SVG/1.1/DTD/svg11.dtd">
<svg version="1.1" id="Calque_1" xmlns="http://www.w3.org/2000/svg" xmlns:xlink="http://www.w3.org/1999/xlink" x="0px" y="0px"
	 width="960px" height="560px" viewBox="0 0 960 560" enable-background="new 0 0 960 560" xml:space="preserve">
<circle fill="#983333" cx="481.505" cy="279.221" r="101.528"/>
<path fill="#FFFFFF" d="M481.637,214.379c2.52,0,5.037,0.961,6.959,2.883c3.842,3.84,3.844,10.065,0.01,13.91l40.879,40.879
	c1.922-1.916,4.438-2.873,6.951-2.873c2.52,0,5.037,0.961,6.959,2.882c3.844,3.845,3.844,10.077,0,13.921
	c-1.922,1.922-4.439,2.882-6.959,2.882s-5.039-0.96-6.961-2.882c-0.023-0.023-0.043-0.05-0.066-0.073l-40.885,40.886
	c0.023,0.021,0.051,0.042,0.072,0.065c3.844,3.843,3.844,10.076,0,13.921c-1.922,1.922-4.439,2.883-6.959,2.883
	c-2.519,0-5.038-0.961-6.96-2.883c-3.844-3.845-3.844-10.076,0-13.921c0.004-0.004,0.008-0.006,0.012-0.009l-40.881-40.881
	c-0.004,0.004-0.006,0.008-0.01,0.012c-1.921,1.922-4.44,2.882-6.959,2.882c-2.52,0-5.039-0.96-6.961-2.882
	c-3.844-3.844-3.844-10.076,0-13.921c1.922-1.921,4.439-2.881,6.957-2.881c2.489,0,4.978,0.938,6.891,2.814l40.885-40.885
	c-3.773-3.849-3.754-10.027,0.066-13.847C476.599,215.34,479.118,214.379,481.637,214.379 M481.637,206.379
	c-4.765,0-9.245,1.855-12.616,5.225c-4.876,4.875-6.329,11.942-4.342,18.122l-32.322,32.321c-1.761-0.571-3.621-0.868-5.522-0.868
	c-4.763,0-9.243,1.854-12.612,5.222c-6.958,6.961-6.958,18.28-0.002,25.237c3.371,3.369,7.851,5.225,12.618,5.225
	c1.947,0,3.847-0.31,5.643-0.906l32.228,32.229c-2.054,6.205-0.618,13.322,4.31,18.251c3.373,3.371,7.854,5.227,12.618,5.227
	c4.766,0,9.246-1.855,12.616-5.226c3.37-3.371,5.226-7.853,5.226-12.618c0-1.979-0.32-3.909-0.936-5.731l32.16-32.16
	c1.822,0.616,3.752,0.936,5.732,0.936c4.766,0,9.246-1.855,12.615-5.225c6.957-6.957,6.957-18.276,0.002-25.234
	c-3.373-3.371-7.852-5.226-12.617-5.226c-1.936,0-3.826,0.307-5.613,0.896l-32.249-32.249c2.04-6.2,0.599-13.305-4.321-18.222
	C490.883,208.235,486.402,206.379,481.637,206.379L481.637,206.379z"/>
<path fill="#FFFFFF" d="M481.576,244.595l34.346,34.345l-34.346,34.347l-34.343-34.347L481.576,244.595 M481.576,233.281
	l-5.657,5.657l-34.344,34.344l-5.656,5.657l5.656,5.656l34.344,34.347l5.657,5.658l5.658-5.657l34.346-34.347l5.656-5.657
	l-5.657-5.657l-34.346-34.344L481.576,233.281L481.576,233.281z"/>
<path fill="#FFFFFF" d="M481.576,265.084l13.855,13.855l-13.855,13.856l-13.855-13.856L481.576,265.084 M481.576,253.771
	l-5.656,5.656l-13.855,13.855l-5.657,5.657l5.656,5.656l13.855,13.856l5.657,5.658l5.658-5.658l13.855-13.856l5.656-5.656
	l-5.657-5.657l-13.855-13.855L481.576,253.771L481.576,253.771z"/>
</svg>
