<?xml version="1.0" encoding="utf-8"?>
<!-- Generator: Adobe Illustrator 16.0.0, SVG Export Plug-In . SVG Version: 6.00 Build 0)  -->
<!DOCTYPE svg PUBLIC "-//W3C//DTD SVG 1.1//EN" "http://www.w3.org/Graphics/SVG/1.1/DTD/svg11.dtd">
<svg version="1.1" id="Calque_1" xmlns="http://www.w3.org/2000/svg" xmlns:xlink="http://www.w3.org/1999/xlink" x="0px" y="0px"
	 width="960px" height="560px" viewBox="0 0 960 560" enable-background="new 0 0 960 560" xml:space="preserve">
<g>
	<path fill="#0063A4" d="M554.2,279.6c0,56.074-16.786,101.82-72.858,101.82c-56.073,0-101.53-45.455-101.53-101.529
		c0-56.072,45.457-101.528,101.53-101.528C537.414,178.363,554.2,223.528,554.2,279.6z"/>
	<path fill="#E1003C" d="M581.529,279.891C581.529,335.965,537,381.42,480,381.42V178.363
		C537,178.363,581.529,223.819,581.529,279.891z"/>
	<g>
		<path fill="#FFFFFF" d="M481.387,227.277l-49.1,26.646c0,0,49.002,9.933,49.002,44.788
			C481.289,298.711,544.922,246.154,481.387,227.277L481.387,227.277z"/>
		<path fill="#FFFFFF" d="M481.346,298.76L481.346,298.76c25.943-1.662,50.551-15.867,46.523-29.367l11.129,14.488
			c0,0-4.994,32.254-57.652,41.971c-52.663-9.717-57.661-41.971-57.661-41.971l11.135-14.488
			c-4.033,13.5,20.58,27.705,46.516,29.367H481.346L481.346,298.76z"/>
	</g>
</g>
</svg>
