<?xml version="1.0" encoding="utf-8"?>
<!-- Generator: Adobe Illustrator 16.0.0, SVG Export Plug-In . SVG Version: 6.00 Build 0)  -->
<!DOCTYPE svg PUBLIC "-//W3C//DTD SVG 1.1//EN" "http://www.w3.org/Graphics/SVG/1.1/DTD/svg11.dtd">
<svg version="1.1" id="Calque_1" xmlns="http://www.w3.org/2000/svg" xmlns:xlink="http://www.w3.org/1999/xlink" x="0px" y="0px"
	 width="960px" height="560px" viewBox="0 0 960 560" enable-background="new 0 0 960 560" xml:space="preserve">
<g>
	<path fill="#983333" d="M573,264.372c0,53.687-90.996,120.795-90.996,120.795S389,318.059,389,264.372S389,174,389,174h184
		C573,174,573,210.686,573,264.372z"/>
	<g>
		<g>
			<path fill="#FFFFFF" d="M481.525,215.926l-36.824,19.985c0,0,36.751,7.449,36.751,33.591
				C481.453,269.502,529.178,230.084,481.525,215.926L481.525,215.926z"/>
			<path fill="#FFFFFF" d="M481.494,269.538L481.494,269.538c19.459-1.246,37.914-11.9,34.895-22.024l8.346,10.865
				c0,0-3.746,24.19-43.24,31.479c-39.496-7.288-43.244-31.479-43.244-31.479l8.352-10.865
				c-3.025,10.124,15.436,20.778,34.886,22.024H481.494L481.494,269.538z"/>
		</g>
	</g>
</g>
</svg>
