<?xml version="1.0" encoding="utf-8"?>
<!-- Generator: Adobe Illustrator 16.0.0, SVG Export Plug-In . SVG Version: 6.00 Build 0)  -->
<!DOCTYPE svg PUBLIC "-//W3C//DTD SVG 1.1//EN" "http://www.w3.org/Graphics/SVG/1.1/DTD/svg11.dtd">
<svg version="1.1" id="Calque_1" xmlns="http://www.w3.org/2000/svg" xmlns:xlink="http://www.w3.org/1999/xlink" x="0px" y="0px"
	 width="960px" height="560px" viewBox="0 0 960 560" enable-background="new 0 0 960 560" xml:space="preserve">
<g>
	<circle fill="#866239" cx="481.341" cy="279.235" r="101.529"/>
	<g>
		<path fill="#FFFFFF" d="M450.839,312.119l13.859-15.568l-0.203,7.311l37.458-44.536l-20.34-0.021
			c-0.523-0.055-1.053,0.102-1.59,0.102c-0.549,0-1.662,0.066-1.662,0.066c-5.307,0.586-9.768,3.831-11.934,8.478l-24.422,27.375
			l-14.49-6.996c-4.428-2.133-9.748-0.283-11.879,4.146s-0.266,9.742,4.164,11.873l20.533,9.873
			c1.234,0.596,2.549,0.881,3.854,0.881C446.669,315.102,449.109,314.062,450.839,312.119z"/>
		<path fill="#FFFFFF" d="M512.537,260.716L466.167,316H508v9h-44.1l-0.268,10H521v-59.356c0-0.487,0.402-0.907,0.402-1.405
			C521.402,268.016,517.934,262.923,512.537,260.716z"/>
	</g>
	<g>
		<path fill="#FFFFFF" d="M501.463,239.631c-0.064,0.002-0.127,0.007-0.191,0.007c-6.9,0-16.65-0.741-23.313-2.823
			c-0.75-0.234-1.477-0.587-2.189-0.99c-0.891,1.432-5.225,2.993-3.932,4.289c1.436,1.44,8.863,2.179,13.256,2.179
			C489.852,242.292,495.742,241.411,501.463,239.631z"/>
		<path fill="#FFFFFF" d="M507.518,238.304l-1.637,1.238c-6.525,2.577-14.297,4.116-20.787,4.116c-2.1,0-4.596-0.171-6.721-0.765
			c0,0.04-0.006,0.079-0.006,0.118c0,8.287,6.719,15.008,15.006,15.008s15.008-6.721,15.008-15.008c0-1.66-0.287-3.25-0.787-4.742
			C507.568,238.28,507.543,238.293,507.518,238.304z"/>
		<path fill="#FFFFFF" d="M513.119,228.006c-1.266-2.322-2.531-2.77-4.955-2.77c-1.531,0-3.527,0.178-6.275,0.178
			c-2.27,0-5.053-0.122-8.516-0.568c-8.203-1.058-12.409-8.011-17.157-8.011c-1.119,0-2.27,0.388-3.508,1.327
			c-6.494,4.928-1.121,15.232,5.658,17.35c6.778,2.117,16.586,2.76,22.905,2.76C507.592,238.272,515.844,233.004,513.119,228.006z"
			/>
	</g>
</g>
</svg>
