<?xml version="1.0" encoding="utf-8"?>
<!-- Generator: Adobe Illustrator 16.0.0, SVG Export Plug-In . SVG Version: 6.00 Build 0)  -->
<!DOCTYPE svg PUBLIC "-//W3C//DTD SVG 1.1//EN" "http://www.w3.org/Graphics/SVG/1.1/DTD/svg11.dtd">
<svg version="1.1" id="Calque_1" xmlns="http://www.w3.org/2000/svg" xmlns:xlink="http://www.w3.org/1999/xlink" x="0px" y="0px"
	 width="960px" height="560px" viewBox="0 0 960 560" enable-background="new 0 0 960 560" xml:space="preserve">
<g>
	<circle fill="#29A5DC" cx="481.341" cy="279.569" r="101.528"/>
	<g id="g2551_5_">
		<g id="g2555_5_">
			<path id="path2557_5_" fill="#FFFFFF" d="M489.953,221.215v117.121h-11.031V221.215H489.953z"/>
			<path id="path2559_5_" fill="#FFFFFF" d="M484.438,279.775"/>
		</g>
		<g id="g2561_5_">
			<g id="g2563_5_">
				<path id="path2565_5_" fill="#FFFFFF" d="M444.209,239.455c5.33,0,9.652-4.322,9.652-9.652c0-5.332-4.322-9.654-9.652-9.654
					c-5.332,0-9.654,4.322-9.654,9.654C434.555,235.133,438.877,239.455,444.209,239.455z"/>
				<path id="path2567_5_" fill="#FFFFFF" d="M444.209,229.803"/>
			</g>
			<path id="path2569_5_" fill="#FFFFFF" d="M442.782,300.664l0.004,33.77c0,6.076-9.104,6.076-9.104,0l-0.004-33.77h-12.062
				l12.908-44.775h-2.031l-7.6,25.578c-1.811,5.578-9.469,3.287-7.717-2.688l8.439-27.787c0.906-3.17,4.914-8.787,11.85-8.787h6.396
				l0,0h6.883c6.877,0,10.902,5.666,11.943,8.787l8.441,27.762c1.689,5.971-5.908,8.443-7.719,2.623l-7.598-25.488h-2.197
				l13.047,44.775h-12.117v33.814c0,6.031-9.064,6-9.064,0v-33.814H442.782z"/>
		</g>
		<g id="g2571_5_">
			<path id="path2573_5_" fill="#FFFFFF" d="M513.098,242.17c-6.791,0-12.256,5.619-12.256,12.627v29.873
				c0,5.807,8.381,5.807,8.381,0v-27.314h1.982v75.684c0,7.764,11.158,7.535,11.158,0V288.73h1.924v44.309
				c0,7.535,11.221,7.764,11.221,0v-75.684h1.936v27.314c0,5.852,8.336,5.852,8.322,0v-29.695c0-6.463-4.949-12.791-12.406-12.791
				L513.098,242.17z"/>
			<g id="g2575_5_">
				<path id="path2577_5_" fill="#FFFFFF" d="M523.281,239.455c5.33,0,9.652-4.322,9.652-9.652c0-5.332-4.322-9.654-9.652-9.654
					c-5.332,0-9.654,4.322-9.654,9.654C513.627,235.133,517.949,239.455,523.281,239.455z"/>
				<path id="path2579_5_" fill="#FFFFFF" d="M523.281,229.803"/>
			</g>
		</g>
	</g>
</g>
</svg>
