<?xml version="1.0" encoding="utf-8"?>
<!-- Generator: Adobe Illustrator 16.0.0, SVG Export Plug-In . SVG Version: 6.00 Build 0)  -->
<!DOCTYPE svg PUBLIC "-//W3C//DTD SVG 1.1//EN" "http://www.w3.org/Graphics/SVG/1.1/DTD/svg11.dtd">
<svg version="1.1" id="Calque_1" xmlns="http://www.w3.org/2000/svg" xmlns:xlink="http://www.w3.org/1999/xlink" x="0px" y="0px"
	 width="960px" height="560px" viewBox="0 0 960 560" enable-background="new 0 0 960 560" xml:space="preserve">
<g>
	<g>
		<path fill="#FFFFFF" d="M481.105,374.637c-52.675,0-95.529-42.854-95.529-95.529c0-52.675,42.854-95.529,95.529-95.529
			s95.529,42.854,95.529,95.529C576.635,331.782,533.78,374.637,481.105,374.637z"/>
		<path fill="#2E318C" d="M481.105,189.579c49.366,0,89.529,40.163,89.529,89.529s-40.163,89.529-89.529,89.529
			s-89.529-40.162-89.529-89.529S431.739,189.579,481.105,189.579 M481.105,177.579c-56.073,0-101.529,45.457-101.529,101.529
			c0,56.072,45.456,101.529,101.529,101.529c56.072,0,101.529-45.457,101.529-101.529
			C582.635,223.036,537.178,177.579,481.105,177.579L481.105,177.579z"/>
	</g>
	<path fill-rule="evenodd" clip-rule="evenodd" fill="#2E318C" d="M532.131,278.014c-0.027-4.623-3.545-9.209-8.004-10.529
		c-0.918-0.271-1.369-0.703-1.697-1.551c-2.66-6.861-5.316-13.725-8.057-20.553c-1.615-4.025-4.609-6.547-8.965-6.967
		c-3.264-0.314-6.568-0.199-9.854-0.258c-1.389-0.025-2.779-0.004-4.115-0.004c-0.082-0.236-0.133-0.316-0.133-0.396
		c-0.012-1.666-0.01-3.334-0.029-5c-0.027-2.441-1.125-3.551-3.543-3.557c-4.301-0.01-8.601-0.004-12.902-0.002
		c-2.828,0.002-3.816,0.973-3.831,3.775c-0.009,1.695-0.001,3.391-0.001,5.18c-3.902,0-7.626-0.031-11.349,0.016
		c-1.309,0.018-2.642,0.1-3.917,0.369c-3.958,0.836-6.623,3.277-8.1,6.992c-2.701,6.797-5.337,13.619-8.035,20.418
		c-0.204,0.512-0.602,1.162-1.061,1.328c-5.799,2.094-8.583,6.053-8.584,12.232c0,8.337,0.045,16.675,0.045,25.013
		c0,0.504,0,1.479,0,2.479c2,0,5.416,0,8.122,0c0,3-0.047,5.771,0.012,8.794c0.08,4.033,2.879,6.854,6.773,7.229
		c4.114,0.398,7.557-2.138,8.366-6.069c0.157-0.764,0.156-1.208,0.161-1.995c0.018-2.752,0.008-4.959,0.008-7.959
		c18.426,0,36.705,0,55.134,0c0,1-0.004,0.661,0.002,1.177c0.025,2.676-0.061,5.151,0.111,7.817
		c0.262,4.033,3.232,6.761,7.156,6.938c4.16,0.189,7.281-2.259,8.018-6.274c0.166-0.898,0.152-1.425,0.158-2.345
		c0.02-2.533,0.008-4.313,0.008-7.313c2.744,0,5.355,0,8.041,0c0.043,0,0.074-0.907,0.074-1.034
		C532.146,296.792,532.189,287.186,532.131,278.014z M445.983,289.467c-3.949-0.041-7.1-3.301-7.068-7.316
		c0.03-4.039,3.182-7.183,7.186-7.167c3.978,0.016,7.045,3.193,7.033,7.287C453.123,286.295,449.93,289.508,445.983,289.467z
		 M447.872,268c1.084-3,2.121-6.247,3.159-8.974c1.122-2.945,2.241-6.232,3.37-9.175c1.006-2.631,2.236-3.667,5.058-3.668
		c14.39-0.008,28.78-0.072,43.17-0.105c2.133-0.004,3.9,1.253,4.709,3.281c2.363,5.928,4.604,12.642,6.949,18.642
		C492.045,268,470.041,268,447.872,268z M516,289.467c-3.963-0.055-7.059-3.287-7.027-7.338c0.031-4.05,3.172-7.175,7.184-7.146
		c3.969,0.031,7.066,3.246,7.039,7.306C523.166,286.295,519.932,289.521,516,289.467z"/>
</g>
</svg>
