<?xml version="1.0" encoding="utf-8"?>
<!-- Generator: Adobe Illustrator 16.0.0, SVG Export Plug-In . SVG Version: 6.00 Build 0)  -->
<!DOCTYPE svg PUBLIC "-//W3C//DTD SVG 1.1//EN" "http://www.w3.org/Graphics/SVG/1.1/DTD/svg11.dtd">
<svg version="1.1" id="Calque_1" xmlns="http://www.w3.org/2000/svg" xmlns:xlink="http://www.w3.org/1999/xlink" x="0px" y="0px"
	 width="960px" height="560px" viewBox="0 0 960 560" enable-background="new 0 0 960 560" xml:space="preserve">
<g>
	<path fill="#FFFFFF" d="M481.105,375.528c-52.674,0-95.528-42.854-95.528-95.529c0-52.674,42.854-95.528,95.528-95.528
		c52.675,0,95.529,42.854,95.529,95.528C576.635,332.674,533.78,375.528,481.105,375.528z"/>
	<path fill="#653A80" d="M481.105,190.471c49.366,0,89.529,40.162,89.529,89.528s-40.163,89.529-89.529,89.529
		c-49.366,0-89.528-40.163-89.528-89.529S431.74,190.471,481.105,190.471 M481.105,178.471
		c-56.073,0-101.528,45.456-101.528,101.528c0,56.073,45.455,101.529,101.528,101.529c56.072,0,101.529-45.456,101.529-101.529
		C582.635,223.927,537.178,178.471,481.105,178.471L481.105,178.471z"/>
</g>
<path id="path3294_8_" fill="#653A80" d="M491.172,246.489c-3.336,0.132-6.465,1.893-7.598,4.281l0.125-0.222l-3.057,4.576
	l-0.127,0.187l-0.072,0.215l-4.342,12.667c-2.105,4.064-3.824,8.744-5.486,13.273c-2.463,6.715-4.791,13.059-8.098,16.91
	c-0.041,0.051-1.914,2.513-3.283,4.316c-0.168-0.359-0.307-0.703-0.359-0.95c-0.553-2.594-4.168-11.574-6.412-16.616
	c0.008,0.018-0.33-0.759-0.33-0.759c-9.562-22.095-15.787-35.562-21.592-36.302c-8.881-1.137-12.791,11.24-12.955,11.768
	l-0.119,0.386l1.336,8.309l0.049,0.312l0.158,0.276l2.473,4.311c0.031,0.049,3.277,5.263,3.777,6.061
	c0.613,1.43,7.039,16.508,11.717,30.356c4.428,13.042,15.965,25.608,21.955,26.366c3.115,0.38,6.695-2.529,8.754-5.434l6.391-7.38
	c0.027-0.032,1.902-2.303,1.902-2.303l0.133-0.162l0.092-0.183l2.695-5.54l3.258-5.557c0.02-0.035,2.053-3.705,2.053-3.705
	c0.043-0.083,5.607-11.616,6.059-12.55c12.359-20.736,12.752-30.842,11.715-37.322C500.9,249.166,497.566,246.207,491.172,246.489"
	/>
<path id="path3304_8_" fill="#653A80" d="M553.123,233.837c-2.6-5.557-6.908-9.644-12.133-11.506
	c-9.688-3.43-22.695,2.62-26.262,12.21c-2.723,7.407-0.586,12.703-0.498,12.926l0.105,0.25l0.18,0.207l4.102,4.723
	c0.008,0.007,2.744,3.115,2.744,3.115l0.162,0.188l0.219,0.134l3.625,2.21l-2.975,3.655c-2.152,1.157-7.799,4.427-8.846,7.344
	c-1.004,2.711-1.037,5.127-0.1,7.169c0.973,2.118,2.953,3.739,5.883,4.822c4.506,1.688,12.688-4.269,14.502-5.659
	c3.82-1.678,5.789-3.912,9.031-6.775l0.074-0.09l2.84-3.29l3.715-3.503l0.211-0.201l0.131-0.26c0.117-0.229,2.869-5.685,4.494-9.982
	C556.275,246.227,555.826,239.612,553.123,233.837"/>
</svg>
