<?xml version="1.0" encoding="utf-8"?>
<!-- Generator: Adobe Illustrator 16.0.0, SVG Export Plug-In . SVG Version: 6.00 Build 0)  -->
<!DOCTYPE svg PUBLIC "-//W3C//DTD SVG 1.0//EN" "http://www.w3.org/TR/2001/REC-SVG-20010904/DTD/svg10.dtd">
<svg version="1.0" id="Calque_12" xmlns="http://www.w3.org/2000/svg" xmlns:xlink="http://www.w3.org/1999/xlink" x="0px" y="0px"
	 width="24px" height="24px" viewBox="0 0 24 24" enable-background="new 0 0 24 24" xml:space="preserve">
<g>
	<circle fill="#009DDF" cx="12.332" cy="12.319" r="11"/>
	<g>
		<path fill-rule="evenodd" clip-rule="evenodd" fill="#FFFFFF" d="M17.315,16.91c-0.096-0.026-0.191-0.05-0.285-0.081
			c-0.389-0.13-0.691-0.368-0.91-0.718c-0.037-0.058-0.127-0.114-0.193-0.115c-1.323-0.008-2.646-0.009-3.969-0.005
			c-0.053,0.001-0.128,0.047-0.153,0.093c-0.285,0.5-0.73,0.76-1.285,0.779c-0.74,0.026-1.421-0.464-1.551-1.27
			c-0.135-0.841,0.44-1.564,1.209-1.702c0.654-0.117,1.295,0.145,1.617,0.756c0.063,0.119,0.138,0.158,0.272,0.156
			c1.273-0.01,2.544-0.013,3.815-0.011c0.121,0,0.184-0.043,0.238-0.143c0.475-0.851,1.701-1.08,2.445-0.449
			c0.156,0.132,0.271,0.312,0.41,0.468c0.033,0.037,0.086,0.095,0.119,0.088c0.328-0.068,0.664-0.122,0.979-0.232
			c0.387-0.136,0.623-0.426,0.695-0.842c0.061-0.351-0.062-0.637-0.32-0.859c-0.521-0.449-1.137-0.744-1.756-1.027
			c-0.709-0.325-1.387-0.701-1.996-1.189c-0.518-0.412-1.021-0.84-1.553-1.23c-0.472-0.346-0.956-0.688-1.523-0.862
			c-0.649-0.198-1.316-0.363-1.996-0.286C10.728,8.33,9.854,8.54,9.196,9.235c-0.557,0.589-1.026,1.238-1.183,2.05
			c-0.069,0.354-0.09,0.736-0.038,1.091c0.098,0.67,0.263,1.331,0.402,1.995c0.123,0.589-0.136,1.155-0.624,1.292
			c-0.442,0.124-0.867,0.084-1.24-0.236c-0.33-0.283-0.674-0.55-1.021-0.813c-0.07-0.053-0.174-0.068-0.266-0.088
			c-0.06-0.014-0.125-0.008-0.187,0.001c-0.412,0.057-0.744-0.078-1.035-0.377c-0.225-0.23-0.481-0.43-0.732-0.633
			c-0.108-0.089-0.115-0.168-0.032-0.271c0.072-0.092,0.141-0.188,0.228-0.304c-0.349-0.325-0.695-0.648-1.042-0.971
			c0-0.022,0-0.045,0-0.068c0.115-0.128,0.231-0.257,0.355-0.395c0.368,0.324,0.728,0.64,1.099,0.967
			c0.057-0.091,0.104-0.166,0.157-0.251c-0.351-0.322-0.695-0.638-1.034-0.95c0.144-0.144,0.271-0.271,0.406-0.405
			c0.293,0.247,0.592,0.497,0.89,0.75c0.231,0.196,0.234,0.201,0.43-0.024c0.082-0.095,0.136-0.12,0.245-0.025
			c0.277,0.24,0.57,0.461,0.854,0.695c0.297,0.244,0.482,0.527,0.386,0.943c-0.038,0.162-0.088,0.35,0.098,0.497
			c0.243,0.193,0.463,0.417,0.701,0.618c0.06,0.051,0.15,0.066,0.237,0.103c0.009-0.058,0.018-0.075,0.014-0.09
			c-0.129-0.58-0.265-1.158-0.387-1.74c-0.149-0.707-0.122-1.405,0.114-2.094C7.237,9.788,7.585,9.14,8.104,8.587
			c0.296-0.315,0.668-0.514,1.021-0.746c0.703-0.463,1.485-0.667,2.303-0.731c0.455-0.036,0.917,0.005,1.375,0.026
			c0.587,0.028,1.152,0.172,1.706,0.366c1.01,0.353,1.928,0.886,2.84,1.435c1.314,0.792,2.621,1.592,3.76,2.635
			c0.195,0.18,0.416,0.346,0.562,0.562c0.305,0.443,0.473,0.933,0.455,1.493c-0.02,0.617-0.281,1.087-0.736,1.462
			c-0.625,0.517-1.369,0.729-2.164,0.796c-0.113,0.009-0.184,0.049-0.236,0.154c-0.146,0.305-0.379,0.533-0.682,0.678
			c-0.176,0.082-0.365,0.131-0.549,0.194C17.61,16.91,17.464,16.91,17.315,16.91z"/>
	</g>
</g>
</svg>
