<?xml version="1.0" encoding="utf-8"?>
<!-- Generator: Adobe Illustrator 16.0.0, SVG Export Plug-In . SVG Version: 6.00 Build 0)  -->
<!DOCTYPE svg PUBLIC "-//W3C//DTD SVG 1.0//EN" "http://www.w3.org/TR/2001/REC-SVG-20010904/DTD/svg10.dtd">
<svg version="1.0" id="Calque_6" xmlns="http://www.w3.org/2000/svg" xmlns:xlink="http://www.w3.org/1999/xlink" x="0px" y="0px"
	 width="519px" height="237px" viewBox="0 0 519 237" enable-background="new 0 0 519 237" xml:space="preserve">
<g id="layer1_1_" transform="translate(-63.887995,-156.91308)" inkscape:groupmode="layer" inkscape:label="Layer 1">
	<g id="g3073" transform="matrix(3.5174135,0,0,-3.5174135,-460.20732,1743.1195)">
		<g>
			<g id="g3075">
				<g id="g3119" transform="translate(443.628,341.0732)">
				</g>
				<g id="g3123" transform="translate(470.848,332.5825)">
				</g>
				<g id="g3127" transform="translate(508.1783,345.5452)">
				</g>
				<g id="g3131" transform="translate(533.6484,331.675)">
				</g>
				<g id="g3135" transform="translate(562.8784,351.5078)">
				</g>
				<g id="g3139" transform="translate(593.2744,351.5078)">
				</g>
				<g id="g3143" transform="translate(638.2521,341.0732)">
				</g>
				<g id="g3147" transform="translate(665.4722,332.5825)">
				</g>
				<g id="g3151" transform="translate(713.0304,347.9703)">
				</g>
				<g id="g3155" transform="translate(725.7947,350.0453)">
				</g>
				<g id="g3159" transform="translate(761.218,350.9254)">
				</g>
				<g id="g3163" transform="translate(802.6276,341.1419)">
				</g>
				<g id="g3167" transform="translate(825.81,365.3259)">
				</g>
				<g id="g3171" transform="translate(840.7213,333.8114)">
				</g>
			</g>
		</g>
	</g>
</g>
<path fill="none" d="M396.419,172.477c-6.662,0-12.043,6.02-12.043,13.496c0,7.297,5.381,13.227,12.043,13.227
	c6.657,0,12.039-5.746,12.039-13.227C408.458,178.221,403.076,172.477,396.419,172.477z"/>
<path fill="none" d="M291.16,172.203c-6.385,0-11.584,5.654-11.584,13.77c0,7.938,5.199,13.412,11.584,13.412
	s11.584-5.475,11.584-13.412C302.744,177.857,297.545,172.203,291.16,172.203z"/>
<path fill="none" d="M156.598,172.477c-6.653,0-12.035,5.744-12.035,13.496c0,7.48,5.382,13.227,12.035,13.227
	c6.664,0,12.044-5.93,12.044-13.227C168.642,178.496,163.262,172.477,156.598,172.477z"/>
<path fill="none" d="M291.16,172.203c-6.385,0-11.584,5.654-11.584,13.77c0,7.938,5.199,13.412,11.584,13.412
	s11.584-5.475,11.584-13.412C302.744,177.857,297.545,172.203,291.16,172.203z"/>
<path fill="none" d="M396.419,172.477c-6.662,0-12.043,6.02-12.043,13.496c0,7.297,5.381,13.227,12.043,13.227
	c6.657,0,12.039-5.746,12.039-13.227C408.458,178.221,403.076,172.477,396.419,172.477z"/>
<path fill="none" d="M156.598,172.477c-6.653,0-12.035,5.744-12.035,13.496c0,7.48,5.382,13.227,12.035,13.227
	c6.664,0,12.044-5.93,12.044-13.227C168.642,178.496,163.262,172.477,156.598,172.477z"/>
<path fill="#00A4FF" d="M254,189.625V173h8v-11h-8v-12h-12v39.531c0,12.861,7,21.164,21,19.701v-10.945
	C257,198.65,254,196.191,254,189.625z"/>
<path fill="#00A4FF" d="M220,189.805c0,5.201-3.846,8.938-9.141,8.938c-7.935,0-8.859-6.291-8.859-8.938V162h-12v27.441
	c0,12.312,7.728,20.977,20.859,20.977c12.768,0,21.141-9.031,21.141-20.977V162h-12V189.805z"/>
<path fill="#00A4FF" d="M156.756,161.164c-14.226,0-24.245,11.131-24.245,24.719c0,13.502,9.941,24.443,22.351,24.443
	c5.654,0,11.139-2.006,14.139-5.926v4.6h12v-23.117C181,172.295,170.896,161.164,156.756,161.164z M156.598,199.199
	c-6.653,0-12.035-5.746-12.035-13.227c0-7.752,5.382-13.496,12.035-13.496c6.664,0,12.044,6.02,12.044,13.496
	C168.642,193.27,163.262,199.199,156.598,199.199z"/>
<path fill="#00A4FF" d="M291.16,161.164c-13.045,0-23.627,10.672-23.627,24.719s10.582,24.535,23.627,24.535
	c13.041,0,23.716-10.488,23.716-24.535S304.201,161.164,291.16,161.164z M291.16,199.385c-6.385,0-11.584-5.475-11.584-13.412
	c0-8.115,5.199-13.77,11.584-13.77s11.584,5.654,11.584,13.77C302.744,193.91,297.545,199.385,291.16,199.385z"/>
<path fill="#00A4FF" d="M397.871,161.35c-5.473,0-9.871,1.73-13.871,5.471V141h-12v44.883c0,13.59,10.064,24.535,24.297,24.535
	c14.137,0,24.045-10.945,24.045-24.535C420.342,172.385,410.273,161.35,397.871,161.35z M396.419,199.199
	c-6.662,0-12.043-5.93-12.043-13.227c0-7.477,5.381-13.496,12.043-13.496c6.657,0,12.039,5.744,12.039,13.496
	C408.458,193.453,403.076,199.199,396.419,199.199z"/>
<path fill="#00A4FF" d="M356.121,142.072c-4.207,0-7.617,3.41-7.617,7.617c0,4.205,3.41,7.613,7.617,7.613
	c4.203,0,7.614-3.408,7.614-7.613C363.735,145.482,360.324,142.072,356.121,142.072z"/>
<path fill="#00A4FF" d="M433.267,141.465c-4.693,0-8.187,3.289-8.187,7.883c0,3.693,1.756,5.887,5.249,7.287
	c0.6,4.789-1.33,10.279-4.33,12.871v3.098c9-1,17.405-9.783,17.405-19.76C443.405,146.152,439.155,141.465,433.267,141.465z"/>
<path fill="#00A4FF" d="M334,189.623V141h-12v48.623c0,12.861,8,21.07,21,19.607v-10.943C337,198.65,334,196.281,334,189.623z"/>
<path fill="#00A4FF" d="M329.521,123.775c0.461-0.18,12.164-4.166,26.26-4.141c9.293,0,19.219,1.699,28.219,6.795v-17.258
	c-10-3.863-19.479-5.098-28.219-5.102c-10.439,0.016-19.388,1.729-25.102,3.16c-3.037-4.922-8.3-12.176-16.506-19.466
	c-14.048-12.525-37.034-24.92-70.7-24.869c-22.188-0.008-40.174,4.401-54.501,11.196c-21.526,10.184-34.562,25.796-42.07,38.518
	c-5.564,9.418-8.205,17.391-9.257,21.391h16.479c2.142-6,6.597-15.881,14.881-25.432c6.494-7.496,15.278-15,27.309-20.594
	c12.029-5.586,27.366-9.455,47.169-9.46c29.79,0.05,48.468,10.522,60.246,20.881c5.857,5.194,9.916,10.38,12.466,14.21
	c1.278,1.918,2.178,3.485,2.742,4.534c0.28,0.525,0.473,0.914,0.592,1.158c0.057,0.121,0.095,0.202,0.115,0.245l2.926,6.726
	L329.521,123.775z"/>
<rect x="350" y="162" fill="#00A4FF" width="12" height="47"/>
</svg>
