<?xml version="1.0" encoding="utf-8"?>
<!-- Generator: Adobe Illustrator 16.0.0, SVG Export Plug-In . SVG Version: 6.00 Build 0)  -->
<!DOCTYPE svg PUBLIC "-//W3C//DTD SVG 1.0//EN" "http://www.w3.org/TR/2001/REC-SVG-20010904/DTD/svg10.dtd">
<svg version="1.0" id="Calque_3" xmlns="http://www.w3.org/2000/svg" xmlns:xlink="http://www.w3.org/1999/xlink" x="0px" y="0px"
	 width="24px" height="24px" viewBox="0 0 24 24" enable-background="new 0 0 24 24" xml:space="preserve">
<g>
	<circle fill="#FFDD00" cx="12" cy="12" r="11"/>
	<g>
		<g>
			<g>
				<g>
					<g>
						<path fill="#053F8F" d="M2.321,15.447c7.511-1.898,12.493-3.312,19.174-4.576c0.205-0.03,0.328-0.117-0.002-0.121
							L9.921,10.959c0.045,0.471-0.456,1.146-1.505,1.796c-0.538,0.335-1.766,0.983-6.108,2.618
							C2.25,15.396,2.277,15.457,2.321,15.447"/>
					</g>
					<g>
						<path fill="#053F8F" d="M14.535,12.842l-1.316,1.69c-0.185,0.247-0.535,0.636-1.028,0.656l-8.033,0.257
							c-0.051,0.001-0.036-0.032-0.015-0.04l10.368-2.613C14.567,12.773,14.568,12.808,14.535,12.842"/>
					</g>
					<g>
						<path fill="#053F8F" d="M16.334,8.551c1.03,0.015,0.999,0.661,0.52,1.304c-0.197,0.268-0.269,0.362-0.458,0.594l-6.653,0.072
							C8.832,9.705,7.093,9.039,6.04,8.664C5.842,8.586,5.958,8.586,6.117,8.587C7.126,8.582,15.788,8.544,16.334,8.551"/>
					</g>
				</g>
			</g>
		</g>
	</g>
</g>
</svg>
