<?xml version="1.0" encoding="utf-8"?>
<!-- Generator: Adobe Illustrator 16.0.0, SVG Export Plug-In . SVG Version: 6.00 Build 0)  -->
<!DOCTYPE svg PUBLIC "-//W3C//DTD SVG 1.0//EN" "http://www.w3.org/TR/2001/REC-SVG-20010904/DTD/svg10.dtd">
<svg version="1.0" id="Calque_6" xmlns="http://www.w3.org/2000/svg" xmlns:xlink="http://www.w3.org/1999/xlink" x="0px" y="0px"
	 width="24px" height="24px" viewBox="0 0 24 24" enable-background="new 0 0 24 24" xml:space="preserve">
<g>
	<path fill="#0063AA" d="M12,23C5.933,23,1,18.074,1,11.999C1,5.925,5.933,1,12,1V23z"/>
	<path fill="#E7003C" d="M23,11.999C23,18.074,18.175,23,12,23V1C18.175,1,23,5.925,23,11.999z"/>
	<g>
		<path fill="#FFFFFF" d="M12.059,6.299L6.739,9.186c0,0,5.309,1.076,5.309,4.853C12.048,14.038,18.942,8.344,12.059,6.299
			L12.059,6.299z"/>
		<path fill="#FFFFFF" d="M12.054,14.044L12.054,14.044c2.812-0.181,5.478-1.72,5.041-3.182l1.206,1.569
			c0,0-0.541,3.494-6.247,4.548c-5.705-1.054-6.247-4.548-6.247-4.548l1.207-1.569C6.576,12.324,9.243,13.863,12.054,14.044
			L12.054,14.044L12.054,14.044z"/>
	</g>
</g>
</svg>
