<?xml version="1.0" encoding="utf-8"?>
<!-- Generator: Adobe Illustrator 16.0.0, SVG Export Plug-In . SVG Version: 6.00 Build 0)  -->
<!DOCTYPE svg PUBLIC "-//W3C//DTD SVG 1.0//EN" "http://www.w3.org/TR/2001/REC-SVG-20010904/DTD/svg10.dtd">
<svg version="1.0" id="Calque_9" xmlns="http://www.w3.org/2000/svg" xmlns:xlink="http://www.w3.org/1999/xlink" x="0px" y="0px"
	 width="519px" height="237px" viewBox="0 0 519 237" enable-background="new 0 0 519 237" xml:space="preserve">
<g>
	<path id="path2264" fill="#4CAA83" d="M226.572,31.631h-6.067l0,0l8.665,10.397h8.231l-8.231-9.098
		c11.267,0,10.833-6.499,10.833-6.499c0-5.196-8.667-5.196-8.667-5.196h-15.593l-3.9,20.797h6.931l3.031-19.066h6.499
		c0,0,4.335,0,4.335,3.901C232.639,26.867,232.639,31.631,226.572,31.631L226.572,31.631z"/>
	<polygon id="polygon2266" fill="#4CAA83" points="289.395,23.399 300.658,23.399 300.658,21.234 271.631,21.234 271.631,23.399 
		282.463,23.399 278.998,42.028 285.93,42.028 	"/>
	<path id="path2270" fill="#4CAA83" d="M231.771,87.955c9.096-9.532,22.099-16.465,36.396-16.465
		c27.725,0,49.824,22.096,49.824,49.826c0,18.195-9.967,36.828-24.695,45.492c-2.168,6.932-3.9,12.129-4.332,21.227
		c29.027-8.664,49.824-35.094,49.824-66.719c0-38.993-31.197-69.321-70.621-69.321c-22.097,0-41.594,9.965-54.592,25.994
		C213.574,77.989,223.971,81.021,231.771,87.955L231.771,87.955L231.771,87.955z"/>
	<path id="path2272" fill="#4CAA83" d="M220.073,107.882c-1.3,4.771-1.732,8.235-1.732,13.431c0,28.596,22.525,50.258,50.259,50.258
		c-1.736,6.5-2.6,11.268-3.035,18.633c-5.196,0-10.397-0.434-15.596-1.732c-30.33-7.365-52.858-34.227-52.423-67.158
		c0-8.23,0.863-15.594,3.897-22.962C201.443,98.354,212.276,99.219,220.073,107.882L220.073,107.882z"/>
	<path id="path2274" fill="#040480" d="M269.896,105.719c0,0,0.867,4.762,1.301,8.232c0,0,0,0.866,1.301,1.3l3.898,1.298
		c0,0,3.033,0.867,2.602,3.9l-0.436,4.768c0,0,1.301-2.6,3.9-2.168c0,0,3.031,0.434,3.031,3.467c0,0,0,3.467,0.867,4.334
		c0,0,0.867,1.734,6.068,2.166c2.164,0.434,3.896,1.732,3.896,1.732c3.9,3.033,1.299,7.797,1.299,7.797s-7.363,16.035-10.83,31.197
		c0,0-6.498,24.264-0.432,42.023h-8.668c-9.965-29.893,9.533-70.617,9.533-70.617s2.6-3.902-0.434-4.766
		c-1.299,0-1.299,0-2.598-0.436c0,0-4.764,0-3.9-6.066c0.865-4.332-2.598-2.164-2.598-2.164c-3.9,2.164-4.334-1.303-4.334-1.303
		c0-1.299-0.434-3.898-0.434-3.898c0-1.732-1.299-1.732-1.299-1.732l-4.336-1.301c-3.029-0.434-3.029-3.465-3.029-3.465
		l-0.867-7.799c0-3.465-3.466-2.165-3.466-2.165c-1.732,0.435-8.233,1.299-8.233,1.299s-3.465,0.866-9.096-0.431
		c-4.334-0.868-9.533-3.902-16.033-9.102c-6.063-5.629-13.865-8.232-13.865-8.232c-16.032-5.633-32.494,1.302-32.494,1.302v-9.099
		c0,0,13.865-7.367,33.361-1.732c0,0,9.532,2.597,20.364,11.697c0,0,3.465,3.033,7.799,5.2c0,0,3.899,2.599,10.396,1.732
		c7.801-1.302,12.134-1.302,12.134-1.302S269.896,100.519,269.896,105.719L269.896,105.719z"/>
	<path fill="#4CAA83" d="M259.935,22.771L241.302,44h3.032l4.334-5h13l2.598,5h6.932L259.935,22.771z M250.401,37l6.065-6.932
		L260.364,37H250.401z"/>
	<path fill="#4CAA83" d="M330.119,28.135c0-5.195-8.664-5.135-8.664-5.135h-15.598l-3.465,21H310v-1.79l0.191-7.21h9.098
		C330.988,35,330.119,28.135,330.119,28.135z M316.691,33h-6.068l1.734-10h6.5c0,0,3.9,0.665,3.9,4.567
		C322.758,27.567,323.189,33,316.691,33z"/>
</g>
</svg>
