<?xml version="1.0" encoding="utf-8"?>
<!-- Generator: Adobe Illustrator 16.0.0, SVG Export Plug-In . SVG Version: 6.00 Build 0)  -->
<!DOCTYPE svg PUBLIC "-//W3C//DTD SVG 1.0//EN" "http://www.w3.org/TR/2001/REC-SVG-20010904/DTD/svg10.dtd">
<svg version="1.0" id="Calque_11" xmlns="http://www.w3.org/2000/svg" xmlns:xlink="http://www.w3.org/1999/xlink" x="0px" y="0px"
	 width="24px" height="24px" viewBox="0 0 24 24" enable-background="new 0 0 24 24" xml:space="preserve">
<g>
	<circle fill="#653A80" cx="12" cy="11.999" r="11"/>
	<path id="path3294" fill="#FFFFFF" d="M13.091,8.369c-0.361,0.014-0.7,0.205-0.823,0.464l0.014-0.024L11.95,9.305l-0.014,0.021
		l-0.008,0.022l-0.471,1.373c-0.228,0.44-0.414,0.947-0.594,1.438c-0.268,0.728-0.52,1.415-0.878,1.832
		c-0.004,0.006-0.207,0.272-0.355,0.468c-0.019-0.039-0.033-0.076-0.039-0.103c-0.06-0.281-0.451-1.254-0.694-1.801
		c0.001,0.002-0.036-0.082-0.036-0.082C7.825,10.079,7.151,8.62,6.522,8.54C5.56,8.417,5.136,9.758,5.118,9.814L5.105,9.856
		l0.145,0.9l0.006,0.034l0.017,0.029l0.269,0.467c0.003,0.006,0.354,0.57,0.409,0.657c0.066,0.154,0.763,1.788,1.27,3.289
		c0.479,1.413,1.729,2.774,2.378,2.856c0.338,0.041,0.726-0.274,0.948-0.589l0.693-0.8c0.003-0.003,0.206-0.249,0.206-0.249
		l0.014-0.018l0.011-0.02l0.292-0.601l0.353-0.603c0.002-0.003,0.223-0.401,0.223-0.401c0.005-0.009,0.607-1.258,0.656-1.359
		c1.339-2.247,1.382-3.342,1.27-4.044C14.146,8.659,13.784,8.338,13.091,8.369"/>
	<path id="path3304" fill="#FFFFFF" d="M19.803,6.998c-0.281-0.602-0.748-1.045-1.314-1.246c-1.049-0.372-2.459,0.283-2.845,1.322
		c-0.295,0.803-0.063,1.376-0.055,1.4l0.012,0.027l0.02,0.022l0.444,0.512c0.001,0.001,0.297,0.337,0.297,0.337l0.019,0.021
		l0.023,0.015l0.393,0.239l-0.322,0.396c-0.233,0.125-0.845,0.479-0.958,0.796c-0.109,0.293-0.112,0.555-0.011,0.776
		c0.104,0.229,0.319,0.405,0.637,0.522c0.488,0.183,1.375-0.463,1.571-0.613c0.414-0.182,0.627-0.424,0.979-0.734l0.008-0.009
		l0.308-0.356l0.402-0.38l0.023-0.021l0.014-0.028c0.013-0.025,0.312-0.616,0.487-1.082C20.145,8.341,20.096,7.624,19.803,6.998"/>
</g>
</svg>
