<?xml version="1.0" encoding="utf-8"?>
<!-- Generator: Adobe Illustrator 16.0.0, SVG Export Plug-In . SVG Version: 6.00 Build 0)  -->
<!DOCTYPE svg PUBLIC "-//W3C//DTD SVG 1.0//EN" "http://www.w3.org/TR/2001/REC-SVG-20010904/DTD/svg10.dtd">
<svg version="1.0" id="Calque_3" xmlns="http://www.w3.org/2000/svg" xmlns:xlink="http://www.w3.org/1999/xlink" x="0px" y="0px"
	 width="200px" height="200px" viewBox="0 0 200 200" enable-background="new 0 0 200 200" xml:space="preserve">
<g>
	<circle cx="100.126" cy="100.891" r="95.213"/>
	<g>
		<path fill="#FFFFFF" d="M99.353,145.223c-5.797-10.812-17.528-21.707-35.195-32.687c-8.249-5.127-12.373-11.704-12.373-19.729
			c0-3.399,0.586-6.688,1.756-9.864c1.17-3.064,2.926-5.823,5.267-8.277c2.228-2.34,4.792-4.207,7.691-5.601
			c2.786-1.281,5.81-1.922,9.07-1.922c3.261,0,6.283,0.641,9.071,1.922c2.897,1.338,5.488,3.206,7.774,5.601
			c2.228,2.341,3.956,5.1,5.183,8.277c1.17,3.01,1.755,6.298,1.755,9.864c0-3.566,0.612-6.854,1.839-9.864
			c1.226-3.177,2.953-5.936,5.183-8.277c2.285-2.395,4.876-4.263,7.775-5.601c2.785-1.281,5.809-1.922,9.07-1.922
			c3.26,0,6.282,0.641,9.07,1.922c2.896,1.394,5.461,3.261,7.69,5.601c2.341,2.454,4.097,5.212,5.267,8.277
			c1.17,3.177,1.756,6.465,1.756,9.864c0,8.138-4.125,14.713-12.373,19.729C116.963,123.516,105.205,134.41,99.353,145.223z"/>
	</g>
	<g>
		<path d="M99.341,69.146c-2.257-0.01-1.222,24.07-3.669,34.682c-2.443,11.2-6.15,21.387-10.34,29.082
			c-4.19,7.694-0.707,2.828-0.707,2.828c1.733-2.699,3.649-4.941,5.748-6.726c2.675-2.175,5.578-3.265,8.708-3.265
			s6.032,1.084,8.709,3.258c2.27,1.853,4.343,4.299,6.222,7.344c0,0,3.297,4.043-0.827-3.439
			c-4.123-7.483-7.894-17.882-10.341-29.082C100.509,93.216,101.6,69.156,99.341,69.146"/>
	</g>
</g>
</svg>
