<?xml version="1.0" encoding="utf-8"?>
<!-- Generator: Adobe Illustrator 16.0.0, SVG Export Plug-In . SVG Version: 6.00 Build 0)  -->
<!DOCTYPE svg PUBLIC "-//W3C//DTD SVG 1.0//EN" "http://www.w3.org/TR/2001/REC-SVG-20010904/DTD/svg10.dtd">
<svg version="1.0" id="Calque_10" xmlns="http://www.w3.org/2000/svg" xmlns:xlink="http://www.w3.org/1999/xlink" x="0px" y="0px"
	 width="24px" height="24px" viewBox="0 0 24 24" enable-background="new 0 0 24 24" xml:space="preserve">
<g>
	<path fill="#FFFFFF" d="M15.098,16.768h0.959c0.596,0,1.08-0.484,1.08-1.08V7.301c0-0.596-0.484-1.08-1.08-1.08h-1.953
		c-0.015-0.374-0.365-0.654-0.826-0.654h-2.553c-0.462,0-0.812,0.28-0.827,0.654H7.944c-0.596,0-1.079,0.484-1.079,1.08v8.387
		c0,0.596,0.483,1.08,1.079,1.08h0.96l-2.072,1.666l2.394-0.002l0.999-1.664h3.552l0.998,1.664l2.395,0.002L15.098,16.768z
		 M9.966,13.917c0,0.245-0.199,0.444-0.444,0.444h-0.86c-0.245,0-0.443-0.199-0.443-0.444V13.51c0-0.244,0.198-0.443,0.443-0.443
		h0.859c0.245,0,0.444,0.199,0.444,0.443L9.966,13.917L9.966,13.917z M8.216,11.172c-0.082,0-0.148-0.066-0.148-0.147v-3.36
		c0-0.082,0.066-0.147,0.148-0.147h7.569c0.082,0,0.148,0.065,0.148,0.147v3.36c0,0.081-0.066,0.147-0.148,0.147H8.216z
		 M14.479,14.361c-0.244,0-0.443-0.199-0.443-0.444V13.51c0-0.244,0.199-0.443,0.443-0.443h0.858c0.246,0,0.444,0.199,0.444,0.443
		v0.407c0,0.245-0.198,0.444-0.444,0.444H14.479z"/>
</g>
</svg>
