<?xml version="1.0" encoding="utf-8"?>
<!-- Generator: Adobe Illustrator 16.0.0, SVG Export Plug-In . SVG Version: 6.00 Build 0)  -->
<!DOCTYPE svg PUBLIC "-//W3C//DTD SVG 1.0//EN" "http://www.w3.org/TR/2001/REC-SVG-20010904/DTD/svg10.dtd">
<svg version="1.0" id="Calque_8" xmlns="http://www.w3.org/2000/svg" xmlns:xlink="http://www.w3.org/1999/xlink" x="0px" y="0px"
	 width="519px" height="237px" viewBox="0 0 519 237" enable-background="new 0 0 519 237" xml:space="preserve">
<linearGradient id="path9752_1_" gradientUnits="userSpaceOnUse" x1="43.6226" y1="64.4277" x2="360.5234" y2="64.4277" gradientTransform="matrix(1 0 0 -1 57.4272 182.9277)">
	<stop  offset="0" style="stop-color:#832C71"/>
	<stop  offset="1" style="stop-color:#E41F25"/>
</linearGradient>
<path id="path9752" inkscape:connector-curvature="0" fill="url(#path9752_1_)" d="M103.191,200.706
	c-0.363-0.312-0.994-0.996-1.401-1.518l-0.74-0.951v-79.194c0-74.745,0.034-79.259,0.578-80.327c1.191-2.333,1.454-2.4,10.369-2.688
	c22.132-0.719,47.932-0.072,73.983,1.851c72.805,5.376,137.816,19.972,188.16,42.237c16.105,7.121,40.363,20.43,43.04,23.611
	c1.575,1.87,2.175-0.312-13.08,47.435c-12.986,40.646-15.427,48.055-16.089,48.873c-0.422,0.521-1.121,0.786-2.529,0.963
	c-1.068,0.133-64.873,0.249-141.787,0.259C112.008,201.27,103.814,201.239,103.191,200.706L103.191,200.706z M154.317,179.512
	c8.902-0.659,14.886-2.055,20.449-4.772c6.073-2.971,10.132-7.005,12.44-12.364c0.951-2.204,1.067-2.815,1.074-5.612
	c0.006-2.874-0.082-3.315-1.055-5.296c-1.356-2.76-4.735-6.217-8.57-8.771c-1.596-1.064-8.155-4.603-14.579-7.864
	c-9.331-4.742-12.036-6.266-13.463-7.582c-1.606-1.48-1.786-1.787-1.801-3.033c-0.028-2.525,1.771-4.514,5.783-6.393
	c2.554-1.195,5.815-1.902,10.604-2.303c3.934-0.324,5.605-0.245,12.311,0.589c3.817,0.475,4.433,0.485,4.7,0.071
	c0.494-0.759,2.952-8.59,3.034-9.664c0.091-1.207-0.213-1.306-6.34-2.053c-6.193-0.75-18.057-0.51-23.289,0.478
	c-12.631,2.384-20.778,7.005-24.031,13.629c-3.014,6.135-1.985,11.376,3.261,16.599c3.068,3.061,5.617,4.705,14.243,9.194
	c14.413,7.505,16.692,8.979,18.642,12.051c1.063,1.676,1.146,2.503,0.423,4.238c-1.525,3.655-5.686,5.701-12.939,6.366
	c-10.793,0.986-19.632-0.656-34.781-6.471c-0.431-0.166-0.867,0.428-2.043,2.768c-2.208,4.395-3.906,8.664-3.582,8.99
	c0.455,0.454,6.901,2.807,10.665,3.889c5.387,1.551,12.101,2.803,18.454,3.439C146.385,179.88,149.882,179.839,154.317,179.512
	L154.317,179.512L154.317,179.512z M314.115,178.574c2.268-0.362,5.606-0.978,7.419-1.367c3.194-0.688,9.848-2.701,10.591-3.207
	c0.201-0.134,2.305-6.382,4.675-13.881c2.374-7.5,4.408-13.735,4.526-13.852c0.12-0.119,7.828-0.27,17.13-0.333l16.912-0.11
	l1.532-4.842c0.839-2.665,1.531-5.154,1.531-5.531c0-1.033-1.252-1.111-18.188-1.111c-8.321,0-15.124-0.09-15.124-0.201
	c0-0.229,5.284-16.741,5.392-16.846c0.039-0.037,9.21-0.174,20.383-0.3l20.318-0.237l1.521-4.998
	c0.841-2.749,1.524-5.375,1.524-5.834c0-0.815-0.081-0.846-2.719-1.052c-3.566-0.276-38.411-0.276-47.339,0.003l-6.961,0.217
	l-3.461,10.418c-1.904,5.73-5.338,16.283-7.629,23.449c-2.292,7.164-5.121,16.023-6.295,19.684l-2.131,6.659L316,165.644
	c-7.336,1.468-18.848,1.251-25.446-0.474c-8.235-2.148-13.573-6.691-15.856-13.494c-1.262-3.759-1.229-9.678,0.078-13.872
	c2.64-8.479,10.425-15.647,20.375-18.77c5.89-1.845,7.429-2.009,18.684-2.001l10.439,0.006l1.877-5.895
	c1.035-3.242,1.755-6.023,1.601-6.175c-1.125-1.124-20.312-1.495-26.96-0.521c-12.489,1.826-22.549,6.327-30.8,13.778
	c-1.565,1.413-2.889,2.524-2.942,2.469c-0.055-0.052,0.779-3.054,1.854-6.666c2.559-8.615,2.608-8.894,1.623-9.158
	c-1.039-0.278-11.322-0.235-12.974,0.054l-1.32,0.232l-1.42,4.118c-0.784,2.266-4.378,13.31-7.997,24.542
	c-3.614,11.229-6.619,20.463-6.673,20.517s-1.122-2.307-2.377-5.248c-4.268-10.022-9.235-19.427-15.11-28.599
	c-2.845-4.451-8.396-12.241-10.18-14.3l-1.104-1.269l-6.275-0.18c-3.453-0.096-7.092-0.074-8.089,0.051l-1.81,0.223L192,114.648
	c-1.756,5.3-4.395,13.492-5.857,18.209c-1.47,4.716-2.731,8.768-2.813,9.008c-0.083,0.236,1.089,1.648,2.595,3.13
	c3.096,3.054,4.464,4.919,5.871,8.022c0.817,1.799,1.088,2.127,1.7,2.041c0.652-0.093,1.271-1.725,5.844-15.503
	c2.809-8.472,5.194-15.481,5.3-15.582c0.104-0.101,1.236,1.413,2.512,3.362c8.847,13.496,16.174,28.817,21.53,45.021l2.047,6.19
	l8.766-0.087l8.761-0.087l4.021-12.451c2.214-6.848,4.165-12.777,4.343-13.173c0.277-0.623,0.445-0.327,1.219,2.151
	c3.137,10.066,10.322,17.125,21.812,21.438c2.979,1.113,8.688,2.479,11.952,2.852C295.979,179.694,309.412,179.324,314.115,178.574
	L314.115,178.574L314.115,178.574z"/>
</svg>
