<?xml version="1.0" encoding="utf-8"?>
<!-- Generator: Adobe Illustrator 16.0.0, SVG Export Plug-In . SVG Version: 6.00 Build 0)  -->
<!DOCTYPE svg PUBLIC "-//W3C//DTD SVG 1.0//EN" "http://www.w3.org/TR/2001/REC-SVG-20010904/DTD/svg10.dtd">
<svg version="1.0" id="Calque_8" xmlns="http://www.w3.org/2000/svg" xmlns:xlink="http://www.w3.org/1999/xlink" x="0px" y="0px"
	 width="24px" height="24px" viewBox="0 0 24 24" enable-background="new 0 0 24 24" xml:space="preserve">
<g id="g2551">
	<g id="g2555">
		<path id="path2557" fill="#FFFFFF" d="M12.934,5.677v12.69h-1.196V5.677H12.934z"/>
		<path id="path2559" fill="#FFFFFF" d="M12.335,12.022"/>
	</g>
	<g id="g2561">
		<g id="g2563">
			<path id="path2565" fill="#FFFFFF" d="M7.977,7.654c0.577,0,1.046-0.469,1.046-1.046c0-0.577-0.469-1.046-1.046-1.046
				c-0.578,0-1.046,0.469-1.046,1.046C6.931,7.185,7.399,7.654,7.977,7.654z"/>
			<path id="path2567" fill="#FFFFFF" d="M7.977,6.608"/>
		</g>
		<path id="path2569" fill="#FFFFFF" d="M7.822,14.286l0.001,3.657c0,0.658-0.986,0.658-0.986,0v-3.657H5.529l1.398-4.852h-0.22
			l-0.823,2.771c-0.196,0.604-1.026,0.355-0.836-0.291l0.914-3.011C6.061,8.56,6.495,7.952,7.247,7.952h0.692l0,0h0.746
			c0.745,0,1.181,0.614,1.294,0.952l0.915,3.008c0.183,0.646-0.641,0.915-0.837,0.284L9.234,9.434H8.996l1.414,4.852H9.097v3.663
			c0,0.652-0.982,0.65-0.982,0v-3.663H7.822z"/>
	</g>
	<g id="g2571">
		<path id="path2573" fill="#FFFFFF" d="M15.439,7.948c-0.735,0-1.328,0.609-1.328,1.368v3.236c0,0.63,0.908,0.63,0.908,0V9.593
			h0.215v8.201c0,0.841,1.209,0.815,1.209,0v-4.801h0.209v4.801c0,0.815,1.216,0.841,1.216,0V9.593h0.21v2.959
			c0,0.636,0.902,0.636,0.9,0V9.335c0-0.7-0.535-1.386-1.344-1.386L15.439,7.948z"/>
		<g id="g2575">
			<path id="path2577" fill="#FFFFFF" d="M16.543,7.654c0.578,0,1.046-0.469,1.046-1.046c0-0.577-0.468-1.046-1.046-1.046
				c-0.577,0-1.046,0.469-1.046,1.046C15.497,7.185,15.966,7.654,16.543,7.654z"/>
			<path id="path2579" fill="#FFFFFF" d="M16.543,6.608"/>
		</g>
	</g>
</g>
</svg>
