<?xml version="1.0" encoding="utf-8"?>
<!-- Generator: Adobe Illustrator 16.0.0, SVG Export Plug-In . SVG Version: 6.00 Build 0)  -->
<!DOCTYPE svg PUBLIC "-//W3C//DTD SVG 1.0//EN" "http://www.w3.org/TR/2001/REC-SVG-20010904/DTD/svg10.dtd">
<svg version="1.0" id="Calque_7" xmlns="http://www.w3.org/2000/svg" xmlns:xlink="http://www.w3.org/1999/xlink" x="0px" y="0px"
	 width="519px" height="237px" viewBox="0 0 519 237" enable-background="new 0 0 519 237" xml:space="preserve">
<g id="g3286" transform="matrix(2.963545,0,0,2.9634927,-616.59132,-812.64478)">
	<g>
		<g id="g3288">
			<path id="path3294_1_" fill="#F9A30D" d="M264.511,310.062c-0.77-0.389-1.697-0.384-2.253,0.014l0.056-0.034l-1.264,0.65
				l-0.052,0.027l-0.043,0.04l-2.569,2.318c-0.986,0.654-1.961,1.495-2.904,2.31c-1.399,1.209-2.72,2.35-3.95,2.805
				c-0.014,0.007-0.747,0.328-1.282,0.563c0.007-0.102,0.019-0.197,0.038-0.26c0.201-0.655,0.51-3.137,0.635-4.557
				c-0.001,0.005,0.021-0.212,0.021-0.212c0.609-6.191,0.892-10.014-0.327-10.909c-1.864-1.371-4.3,0.936-4.402,1.035l-0.075,0.072
				l-0.74,2.044l-0.029,0.077l0.001,0.082l0.018,1.284c0.001,0.015,0.081,1.6,0.094,1.843c-0.041,0.399-0.48,4.612-1.159,8.327
				c-0.635,3.502,0.396,7.787,1.655,8.71c0.656,0.476,1.831,0.268,2.659-0.13l2.369-0.866c0.011-0.003,0.719-0.282,0.719-0.282
				l0.049-0.019l0.043-0.03l1.304-0.914l1.433-0.847c0.009-0.006,0.928-0.579,0.928-0.579c0.02-0.014,2.723-1.921,2.942-2.076
				c5.392-3.136,6.748-5.37,7.326-6.963C266.374,311.885,265.992,310.799,264.511,310.062"/>
			<path id="path3296" fill="#00ABC4" d="M276.405,321.713l-1.325-0.331c-1.475-0.359-2.664-0.754-3-0.995
				c-0.091-0.132-0.145-0.693-0.101-1.056c0.06-0.469,1.159-1.458,1.682-1.395l0.047,0.006l1.668-0.163l1.108-0.025l1.213,0.148
				c0.808,0.102,1.5,1.314,1.426,1.932l-0.02,0.165c-0.14,1.233-0.385,1.932-1.218,1.854
				C277.885,321.853,276.613,321.733,276.405,321.713z M282.223,315.466c-1.001-1.279-2.456-2.068-4.209-2.282
				c-1.22-0.097-2.474-0.288-3.625,0.234c-0.21,0.028-1.383,0.204-2.544,0.735c-1.576,0.751-4.035,2.892-4.139,2.983l-0.08,0.07
				l-0.038,0.1c-0.091,0.235-0.879,2.275-0.981,2.924l-0.808,3.161c-0.336,0.809-0.54,1.489-0.605,2.019
				c-0.114,0.935,0.377,2.399,0.433,2.563l0.018,0.054l0.032,0.046l2.046,3.02l0.365,0.847l0.044,0.101l0.087,0.067l1.593,1.242
				c0.118,0.092,2.917,2.258,5.16,2.534c0.439,0.053,1.4-0.188,1.685-0.262c0.015-0.005,1.145-0.349,1.145-0.349l0.085-0.025
				l0.068-0.058l1.421-1.204c0.069-0.052,1.956-1.553,1.333-3.066c-0.629-1.527-2.817-1.142-2.91-1.125l-0.036,0.007l-0.033,0.012
				l-1.452,0.525l-1.823-0.064l-1.002-0.393c-1.959-1.416-2.815-2.822-3.192-3.758c-0.056-0.139,0.027-0.557,0.378-1.015
				c0.163-0.21,0.753-0.89,1.543-0.793c0.81,0.099,1.849,0.406,2.947,0.731c1.318,0.389,2.681,0.793,3.978,0.953
				c1.045,0.128,2.092-0.17,2.95-0.839c0.886-0.692,1.47-1.713,1.603-2.799C284.013,319.505,283.515,317.12,282.223,315.466"/>
			<path id="path3298" fill="#E40E92" d="M296.423,330.683l-0.007-0.071l-0.254-2.424c0.002,0.021-0.206-3.901-0.22-4.192
				l0.116-3.264l0.001-0.025l-0.002-0.024l-0.494-6.331l0.105-1.888l0.001-0.034l-0.003-0.034l-0.104-0.988l0.198-5.955l0.002-0.041
				l-0.006-0.041c-0.133-0.847-0.894-5.066-2.761-4.89c-1.51,0.144-2.57,1.027-2.767,2.302l-0.004,0.023l-0.001,0.022l-0.05,1.001
				l-0.289,1.567l-0.012,0.068l0.009,0.067c0.003,0.018,0.244,1.865,0.236,2.655c-0.02,0.818-0.369,2.118-0.372,2.131l-0.018,0.067
				l0.004,0.07l0.113,2.054l-0.229,2.145l-0.005,0.04l0.004,0.039l0.474,6.072l-0.473,3.718l-0.008,0.064l0.012,0.064l0.245,1.419
				l0.202,3.425c0.01,0.523-0.126,1.301-0.258,2.054c-0.168,0.969-0.343,1.971-0.267,2.716c0.188,1.858,1.88,4.307,3.29,4.172
				c1.878-0.176,3.224-2.523,3.302-4.602c0-0.014,0.006-1.588,0.007-1.872l0.27-1.206L296.423,330.683"/>
			<path id="path3300" fill="#99B819" d="M305.533,312.837c1.484-0.298,2.805-2.339,2.352-4.627
				c-0.303-1.519-1.26-2.277-2.846-2.256c-0.027,0.002-1.513,0.122-1.513,0.122l-0.178,0.014l-0.116,0.137l-1.016,1.196
				l-0.054,0.064l-0.026,0.078l-0.517,1.547l-0.022,0.065v0.069l-0.013,1.727l-0.001,0.16l0.97,1.147
				c0.631,0.754,1.996,0.848,3.017,0.55L305.533,312.837"/>
			<path id="path3302" fill="#99B819" d="M312.621,332.216L312,328.944c-0.176-0.95-0.365-2.555-0.367-2.572l-0.004-0.02
				l-0.004-0.019l-0.256-1.194c-0.002-0.009-0.978-4.111-0.978-4.111c0.002,0.012-0.5-2.411-0.5-2.411l-0.011-0.05l-0.021-0.045
				l-0.361-0.771c-0.251-0.784-1.069-2.13-2.467-1.834c-0.99,0.207-1.87,1.381-2.04,2.305c-0.004,0.027-0.177,1.471-0.177,1.471
				c0.002-0.011-0.173,1.193-0.173,1.193c-0.354,2.578,1.437,7.68,1.642,8.254l0.279,2.342c0.063,0.349,0.055,0.777,0.047,1.12
				c-0.005,0.271-0.01,0.484,0.016,0.638c0.257,1.345,0.647,2.126,1.267,2.538c0.472,0.313,1.054,0.39,1.78,0.236
				c1.877-0.393,2.871-1.228,2.954-2.48c0.001-0.028,0.001-1.236,0.001-1.236v-0.041L312.621,332.216"/>
			<path id="path3304_1_" fill="#9F3CA4" d="M346.493,293.196c-0.672-1.435-1.785-2.492-3.135-2.973
				c-2.503-0.885-5.864,0.678-6.785,3.156c-0.703,1.913-0.151,3.282-0.129,3.339l0.027,0.065l0.046,0.053l1.06,1.22
				c0.003,0.002,0.709,0.805,0.709,0.805l0.043,0.049l0.056,0.034l0.938,0.572l-0.77,0.945c-0.556,0.298-2.014,1.143-2.285,1.897
				c-0.26,0.7-0.269,1.325-0.026,1.853c0.251,0.547,0.763,0.966,1.52,1.245c1.164,0.436,3.278-1.102,3.746-1.461
				c0.987-0.433,1.497-1.011,2.334-1.751l0.02-0.023l0.734-0.85l0.96-0.906l0.054-0.051l0.034-0.068
				c0.031-0.059,0.741-1.469,1.162-2.579C347.309,296.397,347.191,294.689,346.493,293.196"/>
			<path id="path3306" fill="#1063A6" d="M332.827,319.576l-0.013,0.059l-0.562,0.83l-0.03,0.043l-0.018,0.051l-0.568,1.547
				c-0.359,0.313-2.039,1.499-2.297,1.615c-0.838,0.339-1.695,0.293-2.543-0.135c-1.278-0.646-2.376-2.126-2.799-3.771
				c-0.589-2.309,2.032-5.139,5.608-6.055c0.467-0.12,0.884-0.066,1.275,0.165c1.282,0.758,1.892,3.151,2.092,3.938
				c0,0,0.023,0.085,0.023,0.087C333.096,318.333,332.921,319.142,332.827,319.576z M338.165,315.934
				c-0.41-1.611-1.701-3.912-1.755-4.009l-0.019-0.034l-0.024-0.029l-1.081-1.31l-0.061-0.073l-0.085-0.04l-0.564-0.271
				l-1.027-1.022l-0.105-0.104l-0.941-0.115c-0.696-0.322-2.345-1.04-4.537-0.481c-0.893,0.23-3.039,1.053-3.129,1.088l-0.041,0.016
				l-0.038,0.024c-0.066,0.042-1.624,1.047-2.409,1.974c-0.284,0.36-0.459,0.779-0.615,1.149c-0.101,0.243-0.271,0.649-0.374,0.7
				c-0.191,0.049-0.281,0.07-0.505-0.399c0.001,0.003-0.235-0.5-0.296-0.631l-0.855-3.003c-0.004-0.014-0.695-2.165-0.695-2.165
				l-0.013-0.038l-0.018-0.035l-0.507-0.937l-1.365-4.958c-0.132-0.518-0.547-0.897-1.167-1.055
				c-1.056-0.271-2.466,0.142-3.212,0.94c-0.556,0.596-0.719,1.355-0.46,2.137c-0.004-0.012,1.279,4.269,1.279,4.269
				c-0.006-0.023,0.888,3.663,0.888,3.663l0.012,0.05l0.023,0.046l0.62,1.202l1.43,4.667l0.018,0.06l0.036,0.054l0.871,1.304
				l1.721,5.089l0.018,0.052l0.032,0.046l0.716,1.093l0.363,1.42c0.178,0.693,0.361,0.993,0.522,1.257
				c0.107,0.175,0.191,0.313,0.276,0.572c0.325,0.937,0.538,2.463,0.54,2.479l0.019,0.143l0.102,0.102
				c0.069,0.07,1.702,1.69,3.407,1.257c0.929-0.232,1.229-1.098,1.496-1.863l0.042-0.126c0.167-0.494,1.454-1.338,2.485-1.338
				c1.174,0,2.457-0.784,2.721-0.954l2.177-0.742l0.08-0.027l0.063-0.055l0.8-0.693C335.6,325.969,340.047,323.287,338.165,315.934"
				/>
		</g>
	</g>
</g>
</svg>
