<?xml version="1.0" encoding="utf-8"?>
<!-- Generator: Adobe Illustrator 16.0.0, SVG Export Plug-In . SVG Version: 6.00 Build 0)  -->
<!DOCTYPE svg PUBLIC "-//W3C//DTD SVG 1.0//EN" "http://www.w3.org/TR/2001/REC-SVG-20010904/DTD/svg10.dtd">
<svg version="1.0" id="Calque_1" xmlns="http://www.w3.org/2000/svg" xmlns:xlink="http://www.w3.org/1999/xlink" x="0px" y="0px"
	 width="200px" height="200px" viewBox="0 0 200 200" enable-background="new 0 0 200 200" xml:space="preserve">
<g id="Calque_4" display="none">
	<g display="inline">
		<circle cx="100.125" cy="100.291" r="95.212"/>
		<g>
			<path fill="none" stroke="#FFFFFF" stroke-width="3" stroke-linecap="round" stroke-miterlimit="10" d="M44.537,120.676
				c0.072,0.07,0.144,0.141,0.216,0.21"/>
			
				<path fill="none" stroke="#FFFFFF" stroke-width="3" stroke-linecap="round" stroke-miterlimit="10" stroke-dasharray="0.6019,6.0194" d="
				M49.408,124.693c25.847,17.539,50.471-23.729,71.404-10.746c22.248,13.795,1.299,38.881-13.742,17.475
				c-13.726-19.535,15.496-47.877,27.271-55.729"/>
			<path fill="none" stroke="#FFFFFF" stroke-width="3" stroke-linecap="round" stroke-miterlimit="10" d="M136.922,74.156
				c0.092-0.046,0.182-0.089,0.27-0.129"/>
		</g>
		<circle fill="#FFFFFF" cx="38.25" cy="111.547" r="6.3"/>
		<g>
			<rect x="142" y="55" fill="#FFFFFF" width="6" height="23"/>
			<rect x="134" y="64" fill="#FFFFFF" width="22" height="6"/>
		</g>
	</g>
</g>
<g id="Calque_3" display="none">
	<g display="inline">
		<circle cx="100.126" cy="100.891" r="95.213"/>
		<g>
			<path fill="#FFFFFF" d="M99.353,145.223c-5.797-10.812-17.528-21.707-35.195-32.687c-8.249-5.127-12.373-11.704-12.373-19.729
				c0-3.399,0.586-6.688,1.756-9.864c1.17-3.064,2.926-5.823,5.267-8.277c2.228-2.34,4.792-4.207,7.691-5.601
				c2.786-1.281,5.81-1.922,9.07-1.922c3.261,0,6.283,0.641,9.071,1.922c2.897,1.338,5.488,3.206,7.774,5.601
				c2.228,2.341,3.956,5.1,5.183,8.277c1.17,3.01,1.755,6.298,1.755,9.864c0-3.566,0.612-6.854,1.839-9.864
				c1.226-3.177,2.953-5.936,5.183-8.277c2.285-2.395,4.876-4.263,7.774-5.601c2.785-1.281,5.81-1.922,9.07-1.922
				c3.26,0,6.282,0.641,9.07,1.922c2.896,1.394,5.461,3.261,7.689,5.601c2.342,2.454,4.098,5.212,5.268,8.277
				c1.17,3.177,1.756,6.465,1.756,9.864c0,8.138-4.125,14.712-12.373,19.729C116.963,123.516,105.205,134.41,99.353,145.223z"/>
		</g>
		<g>
			<path d="M99.341,69.146c-2.257-0.01-1.222,24.07-3.669,34.682c-2.443,11.199-6.15,21.387-10.34,29.082
				c-4.19,7.693-0.707,2.828-0.707,2.828c1.733-2.699,3.649-4.941,5.748-6.727c2.675-2.175,5.578-3.265,8.708-3.265
				s6.032,1.084,8.709,3.258c2.271,1.853,4.343,4.3,6.222,7.345c0,0,3.297,4.043-0.826-3.439
				c-4.123-7.483-7.895-17.883-10.342-29.082C100.509,93.216,101.6,69.156,99.341,69.146"/>
		</g>
	</g>
</g>
<g id="Calque_2">
	<g>
		<g>
			<g>
				<path fill="#FFFFFF" d="M101.674,66.75c-2.925-0.013-1.583,31.179-4.753,44.924c-3.165,14.51-7.966,27.703-13.394,37.672
					c-5.427,9.967-0.917,3.662-0.917,3.662c2.246-3.494,4.727-6.398,7.446-8.711c3.465-2.816,7.226-4.229,11.28-4.229
					c4.055,0,7.812,1.402,11.28,4.221c2.938,2.398,5.625,5.566,8.06,9.512c0,0,4.27,5.237-1.07-4.455
					c-5.342-9.693-10.226-23.162-13.396-37.672C103.188,97.929,104.6,66.764,101.674,66.75"/>
			</g>
		</g>
		<g>
			<g>
				<path fill="#FFFFFF" d="M64.216,96.364c-0.228,0-0.458-0.064-0.663-0.199c-0.554-0.364-0.703-1.115-0.339-1.669
					c0.083-0.127,0.192-0.255,0.305-0.377l0.069-0.078c0.427-0.507,1.185-0.571,1.691-0.145c0.507,0.427,0.572,1.184,0.145,1.69
					c-0.042,0.05-0.087,0.101-0.134,0.151c-0.028,0.03-0.057,0.06-0.081,0.09C64.98,96.177,64.603,96.364,64.216,96.364z
					 M67.717,94.433c-0.407,0-0.803-0.207-1.028-0.58c-0.343-0.567-0.16-1.305,0.407-1.648l0.383-0.231
					c0.566-0.343,1.304-0.16,1.647,0.407c0.343,0.567,0.16,1.305-0.407,1.647l-0.383,0.231
					C68.142,94.376,67.928,94.433,67.717,94.433z M71.927,91.888c-0.406,0-0.803-0.207-1.028-0.58
					c-0.343-0.567-0.161-1.305,0.406-1.647l0.383-0.231c0.567-0.344,1.305-0.161,1.647,0.406c0.343,0.567,0.161,1.305-0.406,1.647
					l-0.383,0.231C72.353,91.832,72.139,91.888,71.927,91.888z M76.138,89.343c-0.407,0-0.803-0.207-1.028-0.58
					c-0.343-0.567-0.161-1.305,0.406-1.648l0.383-0.231c0.567-0.344,1.305-0.161,1.648,0.406c0.343,0.567,0.161,1.305-0.406,1.648
					l-0.383,0.231C76.563,89.287,76.35,89.343,76.138,89.343z M80.349,86.798c-0.406,0-0.803-0.206-1.028-0.579
					c-0.343-0.567-0.161-1.305,0.406-1.648l0.383-0.231c0.567-0.343,1.305-0.162,1.648,0.406c0.343,0.567,0.162,1.305-0.406,1.648
					l-0.383,0.231C80.774,86.742,80.56,86.798,80.349,86.798z M84.559,84.253c-0.406,0-0.803-0.207-1.028-0.58
					c-0.343-0.567-0.161-1.305,0.407-1.647l0.382-0.231c0.567-0.343,1.305-0.161,1.648,0.406c0.343,0.567,0.161,1.305-0.407,1.648
					l-0.383,0.231C84.984,84.197,84.771,84.253,84.559,84.253z M88.77,81.708c-0.406,0-0.803-0.207-1.028-0.58
					c-0.343-0.567-0.161-1.305,0.407-1.648l0.383-0.231c0.567-0.343,1.305-0.161,1.647,0.407c0.343,0.567,0.161,1.305-0.407,1.646
					l-0.382,0.231C89.195,81.653,88.981,81.708,88.77,81.708z M92.98,79.164c-0.406,0-0.802-0.207-1.028-0.58
					c-0.343-0.567-0.162-1.305,0.406-1.648l0.383-0.231c0.567-0.343,1.305-0.161,1.648,0.406c0.343,0.567,0.161,1.305-0.406,1.648
					L93.6,78.99C93.406,79.108,93.192,79.164,92.98,79.164z M97.191,76.619c-0.407,0-0.803-0.206-1.028-0.579
					c-0.343-0.567-0.161-1.305,0.406-1.648l0.383-0.231c0.566-0.344,1.305-0.161,1.648,0.406c0.343,0.567,0.161,1.305-0.406,1.648
					l-0.383,0.231C97.616,76.563,97.402,76.619,97.191,76.619z M99.981,74.167c-0.161,0-0.324-0.032-0.48-0.101l-0.41-0.179
					c-0.607-0.266-0.884-0.974-0.619-1.581c0.266-0.607,0.972-0.884,1.581-0.619l0.41,0.179c0.607,0.266,0.885,0.973,0.619,1.581
					C100.884,73.899,100.443,74.167,99.981,74.167z M95.473,72.196c-0.16,0-0.323-0.032-0.479-0.101l-0.41-0.179
					c-0.607-0.265-0.885-0.973-0.62-1.58c0.265-0.607,0.974-0.885,1.58-0.62l0.41,0.179c0.607,0.266,0.885,0.973,0.62,1.58
					C96.376,71.927,95.936,72.196,95.473,72.196z M90.966,70.225c-0.161,0-0.324-0.033-0.48-0.101l-0.41-0.18
					c-0.607-0.266-0.884-0.973-0.618-1.581c0.266-0.607,0.972-0.883,1.581-0.618l0.41,0.179c0.607,0.266,0.884,0.973,0.619,1.581
					C91.869,69.957,91.428,70.225,90.966,70.225z M86.458,68.254c-0.161,0-0.324-0.033-0.48-0.101l-0.41-0.179
					c-0.607-0.266-0.884-0.973-0.619-1.581c0.266-0.607,0.972-0.884,1.581-0.619l0.41,0.18c0.607,0.266,0.884,0.973,0.618,1.581
					C87.361,67.985,86.92,68.254,86.458,68.254z M81.951,66.282c-0.161,0-0.324-0.032-0.48-0.101l-0.41-0.179
					c-0.607-0.266-0.884-0.974-0.618-1.581s0.973-0.883,1.581-0.619l0.41,0.179c0.607,0.266,0.884,0.973,0.619,1.581
					C82.854,66.014,82.413,66.282,81.951,66.282z M77.443,64.311c-0.161,0-0.324-0.033-0.48-0.101l-0.41-0.179
					c-0.607-0.266-0.884-0.973-0.619-1.581c0.265-0.608,0.973-0.883,1.581-0.618l0.41,0.179c0.607,0.266,0.884,0.973,0.619,1.581
					C78.346,64.042,77.905,64.311,77.443,64.311z M72.935,62.339c-0.16,0-0.323-0.032-0.479-0.1l-0.41-0.179
					c-0.607-0.266-0.885-0.973-0.62-1.58c0.266-0.607,0.973-0.884,1.58-0.62l0.41,0.179c0.607,0.265,0.885,0.973,0.62,1.58
					C73.838,62.071,73.398,62.339,72.935,62.339z M68.428,60.369c-0.161,0-0.324-0.033-0.481-0.101l-0.41-0.18
					c-0.607-0.266-0.883-0.973-0.618-1.581c0.266-0.606,0.975-0.882,1.581-0.618l0.41,0.179c0.607,0.266,0.883,0.973,0.618,1.581
					C69.33,60.1,68.89,60.369,68.428,60.369z M64.452,58.907c-0.272,0-0.546-0.092-0.771-0.281l-0.041-0.034
					c-0.119-0.097-0.234-0.201-0.323-0.301c-0.438-0.498-0.39-1.256,0.108-1.694s1.256-0.388,1.694,0.108l0.103,0.082
					c0.508,0.425,0.575,1.182,0.149,1.69C65.134,58.761,64.794,58.907,64.452,58.907z"/>
			</g>
			<g>
				<path fill="#FFFFFF" d="M135.775,94.669c-0.211,0-0.426-0.056-0.619-0.173l-0.383-0.231c-0.567-0.343-0.75-1.081-0.406-1.648
					c0.344-0.567,1.082-0.749,1.648-0.406l0.383,0.231c0.565,0.343,0.748,1.081,0.403,1.648
					C136.578,94.463,136.182,94.669,135.775,94.669z M131.564,92.125c-0.211,0-0.426-0.056-0.619-0.173l-0.383-0.231
					c-0.566-0.343-0.75-1.081-0.406-1.647c0.343-0.567,1.08-0.749,1.648-0.407l0.381,0.231c0.567,0.343,0.75,1.081,0.407,1.648
					C132.367,91.918,131.973,92.125,131.564,92.125z M127.355,89.58c-0.213,0-0.426-0.056-0.619-0.173l-0.385-0.231
					c-0.566-0.343-0.748-1.08-0.406-1.648c0.344-0.567,1.082-0.749,1.647-0.406l0.384,0.231c0.566,0.342,0.75,1.08,0.405,1.647
					C128.158,89.373,127.762,89.58,127.355,89.58z M123.145,87.035c-0.211,0-0.426-0.056-0.619-0.173l-0.383-0.231
					c-0.567-0.342-0.75-1.08-0.406-1.647c0.343-0.567,1.08-0.749,1.646-0.407l0.383,0.231c0.568,0.342,0.75,1.08,0.407,1.647
					C123.947,86.829,123.551,87.035,123.145,87.035z M118.934,84.49c-0.211,0-0.425-0.056-0.619-0.173l-0.383-0.231
					c-0.566-0.343-0.75-1.081-0.406-1.648c0.343-0.567,1.08-0.749,1.646-0.407l0.385,0.231c0.566,0.343,0.748,1.081,0.406,1.648
					C119.736,84.284,119.341,84.49,118.934,84.49z M114.725,81.945c-0.211,0-0.426-0.056-0.619-0.173l-0.383-0.231
					c-0.568-0.342-0.75-1.08-0.408-1.647c0.343-0.567,1.078-0.751,1.646-0.408l0.385,0.231c0.566,0.342,0.75,1.08,0.406,1.647
					C115.527,81.738,115.13,81.945,114.725,81.945z M110.514,79.4c-0.213,0-0.427-0.056-0.621-0.173l-0.383-0.231
					c-0.566-0.343-0.748-1.081-0.404-1.648s1.08-0.749,1.646-0.406l0.383,0.231c0.567,0.343,0.749,1.081,0.406,1.648
					C111.314,79.194,110.919,79.4,110.514,79.4z M106.303,76.856c-0.212,0-0.426-0.056-0.619-0.173l-0.384-0.231
					c-0.567-0.343-0.749-1.081-0.405-1.648c0.344-0.568,1.082-0.749,1.647-0.406l0.383,0.231c0.567,0.343,0.749,1.081,0.405,1.648
					C107.104,76.649,106.709,76.856,106.303,76.856z M102.701,74.351c-0.463,0-0.902-0.269-1.102-0.72
					c-0.265-0.607,0.012-1.315,0.621-1.58l0.409-0.179c0.606-0.266,1.313,0.012,1.58,0.619c0.267,0.607-0.012,1.315-0.619,1.58
					l-0.409,0.179C103.023,74.319,102.861,74.351,102.701,74.351z M107.209,72.379c-0.463,0-0.902-0.269-1.102-0.719
					c-0.266-0.607,0.013-1.315,0.619-1.581l0.41-0.179c0.607-0.266,1.314,0.012,1.581,0.619c0.265,0.607-0.012,1.315-0.62,1.581
					l-0.41,0.179C107.532,72.347,107.369,72.379,107.209,72.379z M111.717,70.408c-0.463,0-0.902-0.269-1.101-0.72
					c-0.267-0.607,0.012-1.314,0.618-1.58l0.41-0.179c0.606-0.266,1.314,0.012,1.58,0.619c0.267,0.607-0.012,1.315-0.619,1.58
					l-0.41,0.18C112.04,70.376,111.877,70.408,111.717,70.408z M116.225,68.437c-0.463,0-0.902-0.269-1.102-0.72
					c-0.266-0.607,0.012-1.315,0.62-1.58l0.409-0.18c0.606-0.266,1.313,0.012,1.58,0.619c0.267,0.607-0.012,1.314-0.619,1.58
					l-0.409,0.179C116.547,68.405,116.385,68.437,116.225,68.437z M120.73,66.465c-0.461,0-0.902-0.269-1.101-0.72
					c-0.267-0.607,0.013-1.314,0.619-1.58l0.41-0.179c0.606-0.266,1.313,0.011,1.58,0.619c0.266,0.608-0.013,1.315-0.619,1.58
					l-0.41,0.179C121.055,66.433,120.893,66.465,120.73,66.465z M125.238,64.494c-0.461,0-0.902-0.269-1.1-0.72
					c-0.267-0.607,0.012-1.315,0.618-1.58l0.41-0.179c0.606-0.265,1.313,0.012,1.58,0.619c0.267,0.607-0.013,1.314-0.619,1.58
					l-0.41,0.179C125.562,64.462,125.4,64.494,125.238,64.494z M129.747,62.522c-0.462,0-0.903-0.269-1.101-0.72
					c-0.267-0.607,0.012-1.314,0.619-1.58l0.409-0.179c0.606-0.266,1.313,0.011,1.58,0.619c0.267,0.607-0.012,1.314-0.618,1.58
					l-0.41,0.179C130.07,62.49,129.907,62.522,129.747,62.522z M134.254,60.552c-0.462,0-0.902-0.269-1.1-0.719
					c-0.266-0.607,0.012-1.315,0.619-1.581l0.408-0.179c0.606-0.266,1.314,0.011,1.58,0.618c0.268,0.607-0.011,1.315-0.617,1.581
					l-0.41,0.18C134.578,60.519,134.415,60.552,134.254,60.552z M138.568,58.917c-0.576,0-1.086-0.417-1.182-1.005
					c-0.092-0.548,0.205-1.07,0.688-1.288c0.449-0.423,1.156-0.437,1.625-0.016c0.324,0.293,0.451,0.724,0.373,1.125
					c-0.043,0.377-0.275,0.998-1.309,1.168C138.699,58.911,138.634,58.917,138.568,58.917z"/>
			</g>
		</g>
	</g>
</g>
</svg>
