<?xml version="1.0" encoding="utf-8"?>
<!-- Generator: Adobe Illustrator 16.0.0, SVG Export Plug-In . SVG Version: 6.00 Build 0)  -->
<!DOCTYPE svg PUBLIC "-//W3C//DTD SVG 1.0//EN" "http://www.w3.org/TR/2001/REC-SVG-20010904/DTD/svg10.dtd">
<svg version="1.0" id="Calque_3" xmlns="http://www.w3.org/2000/svg" xmlns:xlink="http://www.w3.org/1999/xlink" x="0px" y="0px"
	 width="200px" height="200px" viewBox="0 0 200 200" enable-background="new 0 0 200 200" xml:space="preserve">
<g>
	<path fill="#FFFFFF" d="M107.79,129.005c-2.677-2.174-5.579-3.258-8.709-3.258s-6.033,1.09-8.708,3.265
		c-0.704,0.599-1.379,1.268-2.041,1.968c4.811,4.764,8.484,9.512,11.021,14.243c2.51-4.639,6.116-9.292,10.8-13.961
		C109.388,130.441,108.606,129.671,107.79,129.005z"/>
	<path fill="#FFFFFF" d="M145.246,82.943c-1.17-3.065-2.926-5.823-5.268-8.277c-2.229-2.34-4.793-4.207-7.689-5.601
		c-2.788-1.281-5.811-1.922-9.07-1.922c-3.261,0-6.285,0.641-9.07,1.922c-2.898,1.338-5.489,3.206-7.774,5.601
		c-2.229,2.341-3.957,5.1-5.183,8.277c-0.035,0.086-0.065,0.176-0.1,0.263c0.294,7.189,0.621,15.482,1.752,20.623
		c2.13,9.748,5.264,18.889,8.76,26.029c6.034-5.75,13.697-11.523,23.025-17.321c8.248-5.017,12.373-11.591,12.373-19.729
		C147.002,89.408,146.416,86.12,145.246,82.943z"/>
	<path fill="#FFFFFF" d="M97.562,82.862c-1.225-3.142-2.939-5.876-5.147-8.196c-2.286-2.395-4.877-4.263-7.774-5.601
		c-2.788-1.281-5.81-1.922-9.071-1.922c-3.26,0-6.284,0.641-9.07,1.922c-2.899,1.394-5.463,3.261-7.691,5.601
		c-2.341,2.454-4.097,5.213-5.267,8.277c-1.17,3.176-1.756,6.465-1.756,9.864c0,8.025,4.124,14.602,12.373,19.729
		c9.237,5.74,16.835,11.458,22.827,17.152c3.505-7.221,6.571-16.159,8.687-25.86C96.876,98.607,97.237,90.13,97.562,82.862z"/>
</g>
</svg>
