<?xml version="1.0" encoding="utf-8"?>
<!-- Generator: Adobe Illustrator 14.0.0, SVG Export Plug-In . SVG Version: 6.00 Build 43363)  -->
<!DOCTYPE svg PUBLIC "-//W3C//DTD SVG 1.1//EN" "http://www.w3.org/Graphics/SVG/1.1/DTD/svg11.dtd">
<svg xmlns="http://www.w3.org/2000/svg" xmlns:xlink="http://www.w3.org/1999/xlink" xmlns:svg="http://www.w3.org/2000/svg" xmlns:dc="http://purl.org/dc/elements/1.1/" xmlns:cc="http://web.resource.org/cc/" xmlns:rdf="http://www.w3.org/1999/02/22-rdf-syntax-ns#" version="1.1" id="Layer_1" x="0px" y="0px" width="612px" height="792px" viewBox="0 0 612 792" enable-background="new 0 0 612 792" xml:space="preserve">
<g>
	<path fill="#FFFFFF" stroke="#000000" d="M195,487.5c0,0-26.5,3.5-39-21c0,0-11.5-12.5,4.5-13.5s39-7,39-7S205,481.5,195,487.5z"/>
	<path fill="#FFFFFF" stroke="#000000" d="M202.5,389.5c0,0-6-7-4.5-13.5c0,0-6-7-3-11.5s9.5-0.5,9.5-0.5"/>
	<path fill="none" stroke="#000000" d="M198,376c0,0-2-12.5,6.5-7"/>
	<path fill="none" stroke="#000000" d="M155.5,463.5c0,0-0.5-10,11.5-9"/>
</g>
<g>
	<path fill="#FFFFFF" stroke="#000000" d="M305,594c0,0-6.5-3-7.5-15.5c0,0-29.5-13.5-26.5-18c5.5,7-33.733-2.826-36-6   c0,0-20,22.5-41,1.5c0,0-3,1-5.5-5s21.5-19.5,23-21c0,0,3-3.5,5.5-7.5s128-16,128-16L305,594z"/>
	<path fill="none" stroke="#000000" d="M235,554.5c0,0,10-2.5,7.5-21"/>
	<line fill="none" stroke="#000000" x1="274" y1="543.5" x2="271.5" y2="563"/>
	<path fill="none" stroke="#000000" d="M313,549.5c0,0-13.5,11-15.5,29"/>
	<path fill="none" stroke="#000000" d="M192.5,552.5c0,0,0-10.5,9-8.5l12.5-9c0,0,3-5-2.5-5"/>
	<line fill="none" stroke="#000000" x1="317" y1="540" x2="304" y2="533"/>
</g>
<path fill="#FFFFFF" stroke="#000000" d="M213,287.5l-17,196c0,0-6.5,34.5,30.5,40s123,15,123,15s30,7.5,33.5-32S404,223,404,223  s5-34.5-34-36.5s-121.5-8-121.5-8s-27.5,2-29.5,30S213,287.5,213,287.5z"/>
<path fill="#FFFFFF" stroke="#000000" d="M222.5,226l-23,252c0,0,4,34,31,37s94.5,9.5,94.5,9.5s46,12,48.5-30.5S390,219,390,219  s-3-23.5-29-25s-109.5-6.5-109.5-6.5S222.5,182,222.5,226z"/>
<g>
	<path fill="#FFFFFF" stroke="#000000" d="M303,611.5c0,0,9-82.5,44.5-120.5c0,0,6-31.5,7-41.5S342,372,398,343.5   c0,0,24.5-11,28.5,8.5l-2.5,12.5l-2,12.5c0,0,9,17.5,12,28s14,45,20.5,54.5s13,24.5,7.5,39s-8,63.5-13.5,84s-7,31.5-7,31.5"/>
	<path fill="none" stroke="#000000" d="M422,377c0,0-23.865,108.379,1,132c10,9.5,11.5,18.5,11.5,18.5"/>
	<path fill="none" stroke="#000000" d="M412,434c0,0-9.5-8.5-18-7"/>
	<path fill="none" stroke="#000000" d="M398,343.5c0,0-14.5,26-11.5,36.5s29,7.5,29,7.5l6-15"/>
</g>
<metadata><rdf:RDF><cc:Work><dc:format>image/svg+xml</dc:format><dc:type rdf:resource="http://purl.org/dc/dcmitype/StillImage"/><cc:license rdf:resource="http://creativecommons.org/licenses/publicdomain/"/><dc:publisher><cc:Agent rdf:about="http://openclipart.org/"><dc:title>Open Clip Art Library</dc:title></cc:Agent></dc:publisher><dc:title>Hand with Smartphone</dc:title><dc:date>2011-02-15T17:42:46</dc:date><dc:description>Hand holding a smartphone.</dc:description><dc:source>http://openclipart.org/detail/118477/hand-with-smartphone-by-entropy_eater</dc:source><dc:creator><cc:Agent><dc:title>entropy_eater</dc:title></cc:Agent></dc:creator><dc:subject><rdf:Bag><rdf:li>cellphone</rdf:li><rdf:li>clip art</rdf:li><rdf:li>clipart</rdf:li><rdf:li>hand</rdf:li><rdf:li>iphone</rdf:li><rdf:li>mobile</rdf:li><rdf:li>phone</rdf:li><rdf:li>smartphone</rdf:li><rdf:li>telephone</rdf:li></rdf:Bag></dc:subject></cc:Work><cc:License rdf:about="http://creativecommons.org/licenses/publicdomain/"><cc:permits rdf:resource="http://creativecommons.org/ns#Reproduction"/><cc:permits rdf:resource="http://creativecommons.org/ns#Distribution"/><cc:permits rdf:resource="http://creativecommons.org/ns#DerivativeWorks"/></cc:License></rdf:RDF></metadata></svg>
