<?xml version="1.0" encoding="UTF-8" standalone="no"?>
<!-- Created with Inkscape (http://www.inkscape.org/) -->
<!DOCTYPE svg PUBLIC "-//W3C//DTD SVG 1.0//EN" "http://www.w3.org/TR/2001/REC-SVG-20010904/DTD/svg10.dtd">
<svg
   xmlns:svg="http://www.w3.org/2000/svg"
   xmlns="http://www.w3.org/2000/svg"
   version="1.0"
   width="557.97656"
   height="557.78125"
   id="svg2"
   xml:space="preserve"><defs
     id="defs5" /><g
     transform="matrix(1.25,0,0,-1.25,-92.710937,805.41406)"
     id="g11"
     style="display:inline"><path
       d="M 373.9375,126.59375 L 336.96875,163.40625 L 336.96875,215.6875 L 341.0625,219.78125 L 325.40625,219.78125 L 219.78125,325.40625 L 219.78125,341.21875 L 215.6875,336.96875 L 163.40625,336.96875 L 126.4375,373.9375 L 126.4375,426.0625 L 163.40625,463.03125 L 215.6875,463.03125 L 219.78125,458.78125 L 219.78125,474.59375 L 264.9375,519.75 L 285.40625,499.3125 L 248.78125,462.6875 L 248.78125,423.375 L 214.28125,423.375 L 203.59375,434.0625 L 175.5,434.0625 L 155.40625,414.125 L 155.40625,385.875 L 175.5,365.9375 L 203.59375,365.9375 L 214.28125,376.625 L 248.78125,376.625 L 248.78125,337.3125 L 285.40625,300.6875 L 282.71875,298.03125 L 245.03125,335.71875 L 245.03125,372.875 L 215.875,372.875 L 205.1875,362.21875 L 173.90625,362.21875 L 151.6875,384.25 L 151.6875,415.75 L 173.90625,437.78125 L 205.1875,437.78125 L 215.875,427.125 L 245.03125,427.125 L 245.03125,464.09375 L 280.0625,499.3125 L 264.9375,514.4375 L 223.53125,473 L 223.53125,449.6875 L 214.09375,459.125 L 165,459.125 L 130.34375,424.4375 L 130.34375,375.5625 L 165,340.6875 L 214.09375,340.6875 L 223.53125,350.3125 L 223.53125,327 L 326.84375,223.6875 L 350.3125,223.6875 L 340.6875,214.09375 L 340.6875,165 L 375.375,130.34375 L 424.4375,130.34375 L 459.125,165 L 459.125,214.09375 L 449.6875,223.6875 L 473,223.6875 L 523.3125,274.03125 L 508.1875,289.125 L 464.09375,245.03125 L 427.125,245.03125 L 427.125,215.875 L 437.78125,205.1875 L 437.78125,173.90625 L 415.5625,151.84375 L 384.25,151.84375 L 362.21875,173.90625 L 362.21875,205.1875 L 372.875,215.875 L 372.875,245.03125 L 335.71875,245.03125 L 298.03125,282.90625 L 300.6875,285.5625 L 337.3125,248.78125 L 376.625,248.78125 L 376.625,214.4375 L 365.9375,203.59375 L 365.9375,175.5 L 385.875,155.59375 L 414.125,155.59375 L 434.0625,175.5 L 434.0625,203.59375 L 423.21875,214.4375 L 423.21875,248.78125 L 462.6875,248.78125 L 551.21875,337.3125 L 551.21875,376.625 L 585.5625,376.625 L 596.40625,365.9375 L 624.5,365.9375 L 644.40625,385.875 L 644.40625,414.125 L 624.5,434.0625 L 596.40625,434.0625 L 585.5625,423.375 L 551.21875,423.375 L 551.21875,462.6875 L 514.4375,499.3125 L 517.09375,501.96875 L 554.96875,464.09375 L 554.96875,427.125 L 583.9375,427.125 L 594.8125,437.78125 L 626.09375,437.78125 L 648.15625,415.75 L 648.15625,384.25 L 626.09375,362.21875 L 594.8125,362.21875 L 583.9375,372.875 L 554.96875,372.875 L 554.96875,335.71875 L 510.875,291.8125 L 525.96875,276.6875 L 576.3125,327 L 576.3125,350.3125 L 585.90625,340.6875 L 635,340.6875 L 669.65625,375.5625 L 669.65625,424.4375 L 635,459.125 L 585.90625,459.125 L 576.3125,449.6875 L 576.3125,473 L 473,576.3125 L 449.6875,576.3125 L 459.125,585.90625 L 459.125,635 L 424.4375,669.65625 L 375.375,669.65625 L 340.6875,635 L 340.6875,585.90625 L 350.3125,576.3125 L 326.84375,576.3125 L 276.5,525.96875 L 291.625,510.875 L 335.71875,554.96875 L 372.875,554.96875 L 372.875,583.9375 L 362.21875,594.8125 L 362.21875,626.09375 L 384.25,648.15625 L 415.5625,648.15625 L 437.78125,626.09375 L 437.78125,594.8125 L 427.125,583.9375 L 427.125,554.96875 L 464.09375,554.96875 L 501.96875,517.09375 L 499.3125,514.4375 L 462.6875,551.21875 L 423.21875,551.21875 L 423.21875,585.5625 L 434.0625,596.21875 L 434.0625,624.5 L 414.125,644.40625 L 385.875,644.40625 L 365.9375,624.5 L 365.9375,596.21875 L 376.625,585.5625 L 376.625,551.21875 L 337.3125,551.21875 L 294.28125,508.1875 L 309.59375,493.09375 L 346.21875,529.71875 L 398.125,529.71875 L 398.125,588.9375 L 401.875,588.9375 L 401.875,529.71875 L 453.78125,529.71875 L 529.71875,453.78125 L 529.71875,401.875 L 588.9375,401.875 L 588.9375,398.125 L 529.71875,398.125 L 529.71875,346.21875 L 499.3125,315.8125 L 496.65625,318.46875 L 525.96875,347.8125 L 525.96875,452.1875 L 452.1875,525.96875 L 347.8125,525.96875 L 312.25,490.40625 L 327.375,475.3125 L 356.6875,504.65625 L 443.3125,504.65625 L 466.40625,481.53125 L 463.75,478.875 L 441.6875,500.71875 L 358.125,500.71875 L 330.03125,472.625 L 345.15625,457.53125 L 367,479.40625 L 432.8125,479.40625 L 479.40625,432.8125 L 479.40625,367.1875 L 457.34375,345.15625 L 472.625,330.03125 L 500.71875,358.3125 L 500.71875,441.6875 L 478.875,463.75 L 481.53125,466.40625 L 504.46875,443.3125 L 504.46875,356.6875 L 443.3125,295.34375 L 356.6875,295.34375 L 327.375,324.6875 L 312.25,309.59375 L 347.8125,274.03125 L 452.1875,274.03125 L 481.53125,303.34375 L 484.1875,300.6875 L 453.78125,270.28125 L 401.875,270.28125 L 401.875,211.0625 L 398.125,211.0625 L 398.125,270.28125 L 346.21875,270.28125 L 270.09375,346.21875 L 270.09375,389.25 L 274.03125,389.25 L 274.03125,347.8125 L 309.59375,312.25 L 324.6875,327.375 L 295.34375,356.6875 L 295.34375,443.3125 L 318.46875,466.40625 L 321.125,463.75 L 299.09375,441.6875 L 299.09375,358.3125 L 358.125,299.28125 L 441.6875,299.28125 L 469.96875,327.375 L 454.6875,342.46875 L 432.8125,320.59375 L 367,320.59375 L 320.59375,367.1875 L 320.59375,432.8125 L 336.25,448.625 L 338.90625,445.78125 L 324.34375,431.375 L 324.34375,368.625 L 345.15625,347.8125 L 360.25,363.09375 L 345.84375,377.5 L 345.84375,422.5 L 354.03125,430.6875 L 356.6875,428 L 349.59375,420.90625 L 349.59375,379.09375 L 379.09375,349.59375 L 420.90625,349.59375 L 428,356.6875 L 430.6875,354.03125 L 422.5,345.84375 L 377.5,345.84375 L 362.9375,360.4375 L 347.8125,345.15625 L 368.625,324.34375 L 431.21875,324.34375 L 475.46875,368.625 L 475.46875,431.375 L 454.6875,452.1875 L 439.5625,436.90625 L 454.15625,422.5 L 454.15625,377.5 L 445.78125,369.3125 L 443.125,372 L 450.40625,379.09375 L 450.40625,420.90625 L 420.90625,450.40625 L 382.5,450.40625 L 378.75,454.15625 L 422.5,454.15625 L 436.90625,439.5625 L 452,454.84375 L 431.21875,475.65625 L 368.625,475.65625 L 347.8125,454.84375 L 374.46875,428 L 362.21875,415.75 L 362.21875,384.25 L 384.25,362.21875 L 415.5625,362.21875 L 437.78125,384.25 L 437.78125,415.75 L 415.5625,437.78125 L 384.25,437.78125 L 380.875,434.21875 L 360.25,454.84375 L 372.34375,466.78125 L 427.65625,466.78125 L 439.5625,454.84375 L 436.90625,452.1875 L 426.0625,463.03125 L 373.9375,463.03125 L 365.59375,454.84375 L 380.875,439.5625 L 382.65625,441.53125 L 417.15625,441.53125 L 441.53125,417.15625 L 441.53125,382.84375 L 430.6875,372 L 445.78125,356.6875 L 463.03125,373.9375 L 463.03125,426.0625 L 452,436.90625 L 454.6875,439.5625 L 466.78125,427.65625 L 466.78125,372.34375 L 427.65625,333.21875 L 372.34375,333.21875 L 360.25,345.15625 L 362.9375,347.8125 L 373.9375,336.96875 L 426.0625,336.96875 L 443.125,354.03125 L 428,369.3125 L 417.15625,358.46875 L 382.65625,358.46875 L 358.3125,382.84375 L 358.3125,417.15625 L 369.15625,428 L 354.03125,443.125 L 336.96875,426.0625 L 336.96875,373.9375 L 347.8125,363.09375 L 345.15625,360.4375 L 333.21875,372.34375 L 333.21875,427.65625 L 351.375,445.78125 L 336.25,461.09375 L 311.71875,436.53125 L 311.71875,363.46875 L 363.46875,311.71875 L 436.53125,311.71875 L 454.6875,330.03125 L 457.34375,327.375 L 438.15625,307.96875 L 361.84375,307.96875 L 307.96875,361.84375 L 307.96875,438.15625 L 333.59375,463.75 L 318.46875,478.875 L 286.46875,447.03125 L 286.46875,352.96875 L 312.25,327.375 L 309.59375,324.6875 L 282.71875,351.53125 L 282.71875,448.46875 L 315.8125,481.53125 L 300.6875,496.65625 L 261.40625,457.34375 L 261.40625,410.75 L 209.125,410.75 L 198.4375,421.4375 L 180.65625,421.4375 L 168.03125,408.8125 L 168.03125,391.1875 L 180.65625,378.5625 L 198.4375,378.5625 L 209.125,389.25 L 261.40625,389.25 L 261.40625,342.65625 L 342.46875,261.40625 L 389.25,261.40625 L 389.25,209.125 L 378.5625,198.4375 L 378.5625,180.65625 L 391.03125,168.21875 L 408.8125,168.21875 L 421.4375,180.65625 L 421.4375,198.4375 L 410.75,209.125 L 410.75,261.40625 L 457.34375,261.40625 L 496.65625,300.6875 L 481.53125,315.8125 L 448.46875,282.90625 L 351.375,282.90625 L 324.6875,309.59375 L 327.375,312.25 L 352.96875,286.65625 L 446.84375,286.65625 L 513.34375,352.96875 L 513.34375,447.03125 L 481.53125,478.875 L 466.40625,463.75 L 492.03125,438.15625 L 492.03125,361.84375 L 472.625,342.46875 L 469.96875,345.15625 L 488.09375,363.46875 L 488.09375,436.53125 L 436.53125,488.09375 L 363.46875,488.09375 L 345.15625,469.96875 L 342.46875,472.625 L 361.84375,492.03125 L 438.15625,492.03125 L 463.75,466.40625 L 478.875,481.53125 L 446.84375,513.34375 L 352.96875,513.34375 L 327.375,487.75 L 324.6875,490.40625 L 351.375,517.09375 L 448.46875,517.09375 L 517.09375,448.46875 L 517.09375,351.53125 L 484.1875,318.46875 L 499.3125,303.34375 L 538.59375,342.65625 L 538.59375,389.25 L 590.875,389.25 L 601.5625,378.5625 L 619.34375,378.5625 L 631.78125,391.1875 L 631.78125,408.8125 L 619.34375,421.4375 L 601.5625,421.4375 L 590.875,410.75 L 538.59375,410.75 L 538.59375,457.34375 L 457.34375,538.59375 L 410.75,538.59375 L 410.75,590.875 L 421.4375,601.5625 L 421.4375,619.34375 L 408.8125,631.78125 L 391.03125,631.78125 L 378.5625,619.34375 L 378.5625,601.5625 L 389.25,590.875 L 389.25,538.59375 L 342.46875,538.59375 L 309.59375,505.53125 L 306.90625,508.1875 L 341.0625,542.34375 L 385.5,542.34375 L 385.5,588.9375 L 374.84375,599.96875 L 374.84375,620.75 L 389.59375,635.53125 L 410.40625,635.53125 L 425.15625,620.75 L 425.15625,599.96875 L 414.5,588.9375 L 414.5,542.34375 L 458.9375,542.34375 L 499.3125,501.96875 L 514.4375,517.09375 L 467.84375,563.84375 L 435.84375,563.84375 L 435.84375,580.40625 L 446.5,591.0625 L 446.5,629.65625 L 419.28125,657.03125 L 380.71875,657.03125 L 353.3125,629.65625 L 353.3125,591.0625 L 364,580.40625 L 364,563.84375 L 332.15625,563.84375 L 291.625,523.3125 L 288.9375,525.96875 L 330.5625,567.59375 L 360.25,567.59375 L 360.25,578.78125 L 349.59375,589.46875 L 349.59375,631.25 L 379.09375,660.78125 L 420.90625,660.78125 L 450.40625,631.25 L 450.40625,589.46875 L 439.75,578.78125 L 439.75,567.59375 L 469.4375,567.59375 L 567.59375,469.4375 L 567.59375,439.75 L 578.78125,439.75 L 589.46875,450.40625 L 631.25,450.40625 L 660.78125,420.90625 L 660.78125,379.09375 L 631.25,349.59375 L 589.46875,349.59375 L 578.78125,360.25 L 567.59375,360.25 L 567.59375,330.5625 L 525.96875,289.125 L 523.3125,291.8125 L 563.84375,332.15625 L 563.84375,364.15625 L 580.40625,364.15625 L 591.0625,353.3125 L 629.65625,353.3125 L 657.03125,380.71875 L 657.03125,419.28125 L 629.65625,446.6875 L 591.0625,446.6875 L 580.40625,435.84375 L 563.84375,435.84375 L 563.84375,467.84375 L 517.09375,514.4375 L 501.96875,499.3125 L 542.34375,458.9375 L 542.34375,414.5 L 589.28125,414.5 L 599.96875,425.15625 L 620.75,425.15625 L 635.53125,410.40625 L 635.53125,389.59375 L 620.75,374.84375 L 599.96875,374.84375 L 589.28125,385.5 L 542.34375,385.5 L 542.34375,341.0625 L 458.9375,257.65625 L 414.5,257.65625 L 414.5,210.71875 L 425.15625,200.03125 L 425.15625,179.25 L 410.40625,164.46875 L 389.59375,164.46875 L 374.84375,179.25 L 374.84375,200.03125 L 385.5,210.71875 L 385.5,257.65625 L 341.0625,257.65625 L 300.6875,298.03125 L 285.40625,282.90625 L 332.15625,236.15625 L 364,236.15625 L 364,219.59375 L 353.3125,208.9375 L 353.3125,170.34375 L 380.71875,142.96875 L 419.28125,142.96875 L 446.5,170.34375 L 446.5,208.9375 L 435.84375,219.59375 L 435.84375,236.15625 L 467.84375,236.15625 L 508.1875,276.6875 L 510.875,274.03125 L 469.4375,232.40625 L 439.75,232.40625 L 439.75,221.21875 L 450.40625,210.53125 L 450.40625,168.75 L 420.90625,139.21875 L 379.09375,139.21875 L 349.59375,168.75 L 349.59375,210.53125 L 360.25,221.21875 L 360.25,232.40625 L 330.5625,232.40625 L 232.40625,330.5625 L 232.40625,360.25 L 221.03125,360.25 L 210.34375,349.59375 L 168.5625,349.59375 L 139.0625,379.09375 L 139.0625,420.90625 L 168.5625,450.40625 L 210.34375,450.40625 L 221.03125,439.75 L 232.40625,439.75 L 232.40625,469.4375 L 264.9375,501.96875 L 267.625,499.3125 L 236.15625,467.84375 L 236.15625,435.84375 L 219.59375,435.84375 L 208.75,446.6875 L 170.15625,446.6875 L 142.96875,419.28125 L 142.96875,380.71875 L 170.15625,353.3125 L 208.75,353.3125 L 219.59375,364.15625 L 236.15625,364.15625 L 236.15625,332.15625 L 282.71875,285.5625 L 298.03125,300.6875 L 257.46875,341.0625 L 257.46875,385.5 L 210.71875,385.5 L 200.03125,374.84375 L 179.0625,374.84375 L 164.3125,389.59375 L 164.3125,410.40625 L 179.0625,425.15625 L 200.03125,425.15625 L 210.71875,414.5 L 257.46875,414.5 L 257.46875,458.9375 L 298.03125,499.3125 L 271.15625,525.96875 L 325.40625,580.21875 L 341.0625,580.21875 L 336.96875,584.3125 L 336.96875,636.40625 L 373.9375,673.40625 L 426.0625,673.40625 L 463.03125,636.40625 L 463.03125,584.3125 L 458.78125,580.21875 L 474.59375,580.21875 L 580.21875,474.59375 L 580.21875,458.78125 L 584.3125,463.03125 L 636.59375,463.03125 L 673.40625,426.0625 L 673.40625,373.9375 L 636.59375,336.96875 L 584.3125,336.96875 L 580.21875,341.21875 L 580.21875,325.40625 L 474.59375,219.78125 L 458.78125,219.78125 L 463.03125,215.6875 L 463.03125,163.40625 L 426.0625,126.59375 L 373.9375,126.59375 z M 210.90625,398.125 L 210.90625,401.875 L 270.09375,401.875 L 270.09375,453.78125 L 300.6875,484.1875 L 303.34375,481.53125 L 274.03125,452.1875 L 274.03125,398.125 L 210.90625,398.125 z"
       transform="matrix(0.8,0,0,-0.8,-22.580239,741.22016)"
       id="path15"
       style="fill:#cc0000;fill-opacity:1;stroke:#cc0000;stroke-width:2;stroke-linecap:butt;stroke-linejoin:miter;stroke-miterlimit:10;stroke-dasharray:none;stroke-opacity:1" /></g></svg>