<?xml version="1.0" encoding="utf-8"?>
<!-- Generator: Adobe Illustrator 16.0.0, SVG Export Plug-In . SVG Version: 6.00 Build 0)  -->
<!DOCTYPE svg PUBLIC "-//W3C//DTD SVG 1.1//EN" "http://www.w3.org/Graphics/SVG/1.1/DTD/svg11.dtd">
<svg version="1.1" id="Calque_1" xmlns="http://www.w3.org/2000/svg" xmlns:xlink="http://www.w3.org/1999/xlink" x="0px" y="0px"
	 width="960px" height="560px" viewBox="0 0 960 560" enable-background="new 0 0 960 560" xml:space="preserve">
<path fill="#FFFFFF" d="M481.105,175.604c-57.221,0-103.774,46.553-103.774,103.773s46.553,103.773,103.774,103.773
	c57.221,0,103.773-46.553,103.773-103.773S538.326,175.604,481.105,175.604z M481.105,379.151
	c-55.016,0-99.774-44.758-99.774-99.773c0-55.015,44.758-99.773,99.774-99.773s99.773,44.758,99.773,99.773
	C580.879,334.394,536.121,379.151,481.105,379.151z"/>
<g>
	<circle fill="#FFFFFF" cx="481.106" cy="279.27" r="101.529"/>
	<linearGradient id="SVGID_1_" gradientUnits="userSpaceOnUse" x1="379.5776" y1="279.27" x2="582.6348" y2="279.27">
		<stop  offset="0" style="stop-color:#802C71"/>
		<stop  offset="1" style="stop-color:#DE1F25"/>
	</linearGradient>
	<path fill="url(#SVGID_1_)" d="M481.105,189.741c49.366,0,89.529,40.162,89.529,89.528s-40.163,89.529-89.529,89.529
		c-49.366,0-89.528-40.163-89.528-89.529S431.74,189.741,481.105,189.741 M481.105,177.741
		c-56.073,0-101.528,45.456-101.528,101.528c0,56.073,45.455,101.529,101.528,101.529c56.074,0,101.529-45.456,101.529-101.529
		C582.635,223.197,537.18,177.741,481.105,177.741L481.105,177.741z"/>
</g>
<linearGradient id="SVGID_2_" gradientUnits="userSpaceOnUse" x1="433.3999" y1="279.27" x2="528.8105" y2="279.27">
	<stop  offset="0" style="stop-color:#802C71"/>
	<stop  offset="1" style="stop-color:#DE1F25"/>
</linearGradient>
<path fill="url(#SVGID_2_)" d="M509.686,323.267h8.859c5.494,0,9.963-4.47,9.963-9.963v-77.404c0-5.493-4.469-9.963-9.963-9.963
	h-18.023c-0.143-3.461-3.371-6.046-7.635-6.046h-23.563c-4.264,0-7.492,2.585-7.633,6.046h-18.023c-5.494,0-9.963,4.47-9.963,9.963
	v77.404c0,5.493,4.469,9.963,9.963,9.963h8.857L433.4,338.649l22.092-0.016l9.221-15.367h32.786l9.221,15.367l22.092,0.016
	L509.686,323.267z M462.322,296.97c0,2.264-1.834,4.098-4.098,4.098h-7.928c-2.264,0-4.098-1.834-4.098-4.098v-3.756
	c0-2.264,1.834-4.099,4.098-4.099h7.928c2.264,0,4.098,1.835,4.098,4.099V296.97z M446.169,271.634
	c-0.754,0-1.365-0.611-1.365-1.366v-31.012c0-0.755,0.611-1.366,1.365-1.366h69.872c0.754,0,1.367,0.611,1.367,1.366v31.012
	c0,0.755-0.613,1.366-1.367,1.366H446.169z M503.986,301.067c-2.264,0-4.098-1.834-4.098-4.098v-3.756
	c0-2.264,1.834-4.099,4.098-4.099h7.928c2.264,0,4.098,1.835,4.098,4.099v3.756c0,2.264-1.834,4.098-4.098,4.098H503.986z"/>
</svg>
