<?xml version="1.0" encoding="utf-8"?>
<!-- Generator: Adobe Illustrator 16.0.0, SVG Export Plug-In . SVG Version: 6.00 Build 0)  -->
<!DOCTYPE svg PUBLIC "-//W3C//DTD SVG 1.1//EN" "http://www.w3.org/Graphics/SVG/1.1/DTD/svg11.dtd">
<svg version="1.1" id="Calque_1" xmlns="http://www.w3.org/2000/svg" xmlns:xlink="http://www.w3.org/1999/xlink" x="0px" y="0px"
	 width="960px" height="560px" viewBox="0 0 960 560" enable-background="new 0 0 960 560" xml:space="preserve">
<g>
	<circle fill="#29A5DC" cx="481.341" cy="279.557" r="101.53"/>
	<path fill="#FFFFFF" d="M523,253v-8h-24.436c-1.424-8-8.586-14.5-17.225-14.5c-8.64,0-15.798,6.5-17.224,14.5H438v8h9v71h-9v9
		h43.34H523v-9h-9v-71H523z M486,320h-31v-63h31V320z M506,320h-11v-15h11V320z M506,296h-11v-15h11V296z M506,272h-11v-15h11V272z"
		/>
</g>
<path fill="#FFFFFF" d="M480.105,175.604c-57.221,0-103.774,46.553-103.774,103.773s46.553,103.773,103.774,103.773
	c57.221,0,103.773-46.553,103.773-103.773S537.326,175.604,480.105,175.604z M480.105,379.151
	c-55.016,0-99.774-44.758-99.774-99.773c0-55.015,44.758-99.773,99.774-99.773s99.773,44.758,99.773,99.773
	C579.879,334.394,535.121,379.151,480.105,379.151z"/>
</svg>
