<?xml version="1.0" encoding="utf-8"?>
<!-- Generator: Adobe Illustrator 16.0.0, SVG Export Plug-In . SVG Version: 6.00 Build 0)  -->
<!DOCTYPE svg PUBLIC "-//W3C//DTD SVG 1.1//EN" "http://www.w3.org/Graphics/SVG/1.1/DTD/svg11.dtd">
<svg version="1.1" id="Calque_1" xmlns="http://www.w3.org/2000/svg" xmlns:xlink="http://www.w3.org/1999/xlink" x="0px" y="0px"
	 width="960px" height="560px" viewBox="0 0 960 560" enable-background="new 0 0 960 560" xml:space="preserve">
<g>
	<circle fill="#2E318C" cx="481.341" cy="279.228" r="101.528"/>
	<g>
		<path fill="#FFFFFF" d="M493.434,232.829c6.223,0,11.518,0.905,15.885,2.717c4.365,1.812,7.92,4.204,10.66,7.176
			c2.738,2.975,4.738,6.364,5.992,10.172c1.254,3.811,1.881,7.758,1.881,11.844c0,3.995-0.627,7.921-1.881,11.774
			c-1.254,3.855-3.254,7.27-5.992,10.241c-2.74,2.975-6.295,5.365-10.66,7.177c-4.367,1.812-9.662,2.717-15.885,2.717h-22.99v35.671
			h-21.877v-99.488H493.434z M487.443,279.647c2.508,0,4.922-0.186,7.246-0.558c2.32-0.37,4.365-1.091,6.131-2.16
			c1.762-1.066,3.18-2.577,4.248-4.528s1.604-4.505,1.604-7.664c0-3.156-0.535-5.713-1.604-7.663
			c-1.068-1.951-2.486-3.46-4.248-4.528c-1.766-1.067-3.811-1.788-6.131-2.16c-2.324-0.37-4.738-0.558-7.246-0.558h-17v29.819
			H487.443z"/>
	</g>
</g>
<path fill="#FFFFFF" d="M480.105,175.604c-57.221,0-103.774,46.553-103.774,103.773s46.553,103.773,103.774,103.773
	c57.221,0,103.773-46.553,103.773-103.773S537.326,175.604,480.105,175.604z M480.105,379.151
	c-55.016,0-99.774-44.758-99.774-99.773c0-55.015,44.758-99.773,99.774-99.773s99.773,44.758,99.773,99.773
	C579.879,334.394,535.121,379.151,480.105,379.151z"/>
</svg>
