<?xml version="1.0" encoding="utf-8"?>
<!-- Generator: Adobe Illustrator 16.0.0, SVG Export Plug-In . SVG Version: 6.00 Build 0)  -->
<!DOCTYPE svg PUBLIC "-//W3C//DTD SVG 1.1//EN" "http://www.w3.org/Graphics/SVG/1.1/DTD/svg11.dtd">
<svg version="1.1" id="Calque_1" xmlns="http://www.w3.org/2000/svg" xmlns:xlink="http://www.w3.org/1999/xlink" x="0px" y="0px"
	 width="960px" height="560px" viewBox="0 0 960 560" enable-background="new 0 0 960 560" xml:space="preserve">
<g>
	<g>
		<circle fill="#009866" cx="481.001" cy="279.562" r="101.528"/>
	</g>
	<path id="path2999_3_" inkscape:connector-curvature="0" fill="#FFFFFF" d="M500.555,260.343v-38.438h-38.438v38.438h-38.434
		v38.443h38.434v38.435h38.438v-38.435h38.441v-38.443H500.555z"/>
</g>
<path fill="#FFFFFF" d="M480.105,175.604c-57.221,0-103.774,46.553-103.774,103.773s46.553,103.773,103.774,103.773
	c57.221,0,103.773-46.553,103.773-103.773S537.326,175.604,480.105,175.604z M480.105,379.151
	c-55.016,0-99.774-44.758-99.774-99.773c0-55.015,44.758-99.773,99.774-99.773s99.773,44.758,99.773,99.773
	C579.879,334.394,535.121,379.151,480.105,379.151z"/>
</svg>
