<?xml version="1.0" encoding="utf-8"?>
<!-- Generator: Adobe Illustrator 16.0.0, SVG Export Plug-In . SVG Version: 6.00 Build 0)  -->
<!DOCTYPE svg PUBLIC "-//W3C//DTD SVG 1.1//EN" "http://www.w3.org/Graphics/SVG/1.1/DTD/svg11.dtd">
<svg version="1.1" id="Calque_1" xmlns="http://www.w3.org/2000/svg" xmlns:xlink="http://www.w3.org/1999/xlink" x="0px" y="0px"
	 width="960px" height="560px" viewBox="0 0 960 560" enable-background="new 0 0 960 560" xml:space="preserve">
<g>
	<path fill="#983333" d="M480.626,386.384c-0.233-0.169-23.619-17.12-46.69-40.427C402.792,314.495,387,287.046,387,264.372V173h187
		v91.372c0,22.668-15.45,50.113-45.921,81.573c-22.574,23.309-45.456,40.261-45.685,40.429l-0.881,0.649L480.626,386.384z"/>
	<path fill="#FFFFFF" d="M572,175c0,0,0,35.686,0,89.372s-90.996,120.795-90.996,120.795S388,318.059,388,264.372S388,175,388,175
		H572 M575,172h-2.5h-184H385v2.5v89.872c0,23.083,16.188,50.888,47.62,82.641c23.158,23.394,46.769,40.418,47.003,40.587
		l1.837,1.281l1.792-1.3c0.229-0.169,22.978-17.195,45.639-40.592C559.643,315.239,575,287.443,575,264.372V174.5V172L575,172z"/>
</g>
<path fill="#983333" d="M573,264.372c0,53.687-90.996,120.795-90.996,120.795S389,318.059,389,264.372S389,174,389,174h184
	C573,174,573,210.686,573,264.372z"/>
<g>
	<g>
		<path fill="#FFFFFF" d="M481.525,215.926l-36.824,19.985c0,0,36.751,7.449,36.751,33.591
			C481.453,269.502,529.178,230.084,481.525,215.926L481.525,215.926z"/>
		<path fill="#FFFFFF" d="M481.494,269.538L481.494,269.538c19.459-1.246,37.914-11.9,34.895-22.024l8.346,10.865
			c0,0-3.746,24.19-43.24,31.479c-39.496-7.288-43.244-31.479-43.244-31.479l8.352-10.865
			c-3.025,10.124,15.436,20.778,34.886,22.024H481.494L481.494,269.538z"/>
	</g>
</g>
</svg>
