<?xml version="1.0" encoding="utf-8"?>
<!-- Generator: Adobe Illustrator 16.0.0, SVG Export Plug-In . SVG Version: 6.00 Build 0)  -->
<!DOCTYPE svg PUBLIC "-//W3C//DTD SVG 1.1//EN" "http://www.w3.org/Graphics/SVG/1.1/DTD/svg11.dtd">
<svg version="1.1" id="Calque_1" xmlns="http://www.w3.org/2000/svg" xmlns:xlink="http://www.w3.org/1999/xlink" x="0px" y="0px"
	 width="960px" height="560px" viewBox="0 0 960 560" enable-background="new 0 0 960 560" xml:space="preserve">
<g>
	<circle fill="#FFD700" cx="481.341" cy="279.899" r="101.528"/>
	<g>
		<g>
			<g>
				<g>
					<g>
						<path fill="#053F89" d="M392.004,311.726c69.326-17.523,115.308-30.58,176.968-42.238c1.898-0.281,3.031-1.084-0.014-1.123
							l-106.814,1.93c0.42,4.345-4.211,10.579-13.893,16.574c-4.963,3.092-16.289,9.076-56.375,24.164
							C391.348,311.251,391.6,311.81,392.004,311.726"/>
					</g>
					<g>
						<path fill="#053F89" d="M504.734,287.677l-12.146,15.598c-1.703,2.282-4.938,5.871-9.496,6.057l-74.14,2.369
							c-0.473,0.008-0.338-0.297-0.137-0.37l95.697-24.119C505.029,287.038,505.043,287.359,504.734,287.677"/>
					</g>
					<g>
						<path fill="#053F89" d="M521.336,248.071c9.512,0.127,9.225,6.097,4.795,12.033c-1.822,2.465-2.479,3.342-4.221,5.48
							l-61.412,0.667c-8.402-7.526-24.459-13.681-34.174-17.142c-1.824-0.72-0.758-0.72,0.715-0.705
							C436.352,248.356,516.299,248.006,521.336,248.071"/>
					</g>
				</g>
			</g>
		</g>
	</g>
</g>
<path fill="#FFFFFF" d="M480.105,175.604c-57.221,0-103.774,46.553-103.774,103.773s46.553,103.773,103.774,103.773
	c57.221,0,103.773-46.553,103.773-103.773S537.326,175.604,480.105,175.604z M480.105,379.151
	c-55.016,0-99.774-44.758-99.774-99.773c0-55.015,44.758-99.773,99.774-99.773s99.773,44.758,99.773,99.773
	C579.879,334.394,535.121,379.151,480.105,379.151z"/>
</svg>
