<?xml version="1.0" encoding="utf-8"?>
<!-- Generator: Adobe Illustrator 16.0.0, SVG Export Plug-In . SVG Version: 6.00 Build 0)  -->
<!DOCTYPE svg PUBLIC "-//W3C//DTD SVG 1.1//EN" "http://www.w3.org/Graphics/SVG/1.1/DTD/svg11.dtd">
<svg version="1.1" id="Calque_1" xmlns="http://www.w3.org/2000/svg" xmlns:xlink="http://www.w3.org/1999/xlink" x="0px" y="0px"
	 width="960px" height="560px" viewBox="0 0 960 560" enable-background="new 0 0 960 560" xml:space="preserve">
<g>
	<path id="path2387" fill="#14489C" d="M582.605,280.306c0-56.331-45.441-101.752-101.768-101.752
		c-56.067,0-101.231,45.421-101.231,101.752c0,56.065,45.164,101.247,101.231,101.247
		C537.164,381.553,582.605,336.371,582.605,280.306"/>
	<path id="path2385" fill="#FFFFFF" d="M567.635,280.306c0,47.702-38.836,86.278-86.797,86.278
		c-47.695,0-86.269-38.576-86.269-86.278c0-47.959,38.573-86.779,86.269-86.779C528.801,193.527,567.635,232.347,567.635,280.306z"
		/>
	<path id="path3" fill="#14489C" d="M528.543,239.964c0-4.064-2.531-7.863-7.107-7.863h-80.43c-4.561,0-7.103,3.799-7.103,7.863
		c0,3.553,2.542,7.86,7.103,7.86h30.949v83.229c0,4.576,4.825,7.121,9.137,7.121c4.828,0,9.404-2.545,9.404-7.121v-83.229h30.939
		C526.012,247.824,528.543,243.517,528.543,239.964z"/>
</g>
<path fill="#FFFFFF" d="M480.105,175.604c-57.221,0-103.774,46.553-103.774,103.773s46.553,103.773,103.774,103.773
	c57.221,0,103.773-46.553,103.773-103.773S537.326,175.604,480.105,175.604z M480.105,379.151
	c-55.016,0-99.774-44.758-99.774-99.773c0-55.015,44.758-99.773,99.774-99.773s99.773,44.758,99.773,99.773
	C579.879,334.394,535.121,379.151,480.105,379.151z"/>
</svg>
