<?xml version="1.0" encoding="utf-8"?>
<!-- Generator: Adobe Illustrator 16.0.0, SVG Export Plug-In . SVG Version: 6.00 Build 0)  -->
<!DOCTYPE svg PUBLIC "-//W3C//DTD SVG 1.1//EN" "http://www.w3.org/Graphics/SVG/1.1/DTD/svg11.dtd">
<svg version="1.1" id="Calque_1" xmlns="http://www.w3.org/2000/svg" xmlns:xlink="http://www.w3.org/1999/xlink" x="0px" y="0px"
	 width="960px" height="560px" viewBox="0 0 960 560" enable-background="new 0 0 960 560" xml:space="preserve">
<g>
	<g>
		<g id="wireless-4-icon_2_">
			<path fill="#666666" d="M481.34,181.709c-54.232,0-98.197,43.963-98.197,98.197c0,54.232,43.965,98.196,98.197,98.196
				c54.234,0,98.199-43.964,98.199-98.196C579.539,225.672,535.574,181.709,481.34,181.709z"/>
		</g>
	</g>
	<g>
		<path fill="#FFFFFF" d="M481.34,231.301c-26.843,0-51.146,10.881-68.738,28.473l13.682,13.68
			c14.09-14.09,33.555-22.805,55.056-22.805c21.5,0,40.967,8.715,55.059,22.805l13.682-13.68
			C532.488,242.182,508.184,231.301,481.34,231.301z"/>
		<path fill="#FFFFFF" d="M459.651,306.822l21.689,21.689l21.689-21.689c-5.551-5.551-13.219-8.984-21.689-8.984
			C472.87,297.838,465.202,301.271,459.651,306.822z"/>
		<path fill="#FFFFFF" d="M436.293,283.465l13.348,13.346c8.113-8.111,19.32-13.131,31.699-13.131
			c12.379,0,23.586,5.02,31.699,13.131l13.348-13.346c-11.529-11.529-27.455-18.66-45.047-18.66
			C463.749,264.805,447.823,271.936,436.293,283.465z"/>
	</g>
</g>
<path fill="#FFFFFF" d="M480.105,175.604c-57.221,0-103.774,46.553-103.774,103.773s46.553,103.773,103.774,103.773
	c57.221,0,103.773-46.553,103.773-103.773S537.326,175.604,480.105,175.604z M480.105,379.151
	c-55.016,0-99.774-44.758-99.774-99.773c0-55.015,44.758-99.773,99.774-99.773s99.773,44.758,99.773,99.773
	C579.879,334.394,535.121,379.151,480.105,379.151z"/>
</svg>
